<svg xmlns="http://www.w3.org/2000/svg" xml:space="preserve" width="100mm" height="100mm" version="1.1" style="shape-rendering:geometricPrecision; text-rendering:geometricPrecision; image-rendering:optimizeQuality; fill-rule:evenodd; clip-rule:evenodd"
viewBox="0 0 10000 10000"
 xmlns:xlink="http://www.w3.org/1999/xlink">
 <defs>
  </defs>
 <g id="Слой_x0020_1">
  <g id="_2331479013216">
   <g>
    <path style="fill:#1E2125" d="M4068.25 7635.12c129.33,8.12 296.48,-25.62 415.63,-66.84 62.51,-21.62 273.68,-131.41 327.89,-166.74 40.73,-26.55 113.27,-69.92 143.72,-103.51 16.06,-17.7 15.82,-28.67 40.41,-43.48 46.21,37.8 104.02,97.33 164.3,142.03 32.82,24.35 65.2,33.24 95.71,59.03 39.4,33.31 129.11,51.62 214.68,94.05 135.85,67.37 348.51,79.75 369.76,91.67l55.54 0c18.01,-10.12 37.04,-11.69 58.53,-13.27 45.92,-3.36 130.58,-10.3 166.99,-23.94 35.01,-13.12 138.25,-64.58 169.53,-84.04 114.04,-70.99 233.11,-254.94 251.65,-384.3 25.53,-178.11 21.74,-262.28 -32.85,-439.15 -11.19,-36.26 -69.86,-112.58 -89.7,-164.14 -25.73,-66.87 -53.86,-100.2 -92.48,-161.01 -17.57,-27.66 -29.23,-59.01 -51.48,-78.43 -17.07,-14.9 -20.85,-14.51 -37.76,-30.14 -12.23,-11.3 -19.21,-18.62 -31.86,-29.96 -21.53,-19.28 -41.11,-38.89 -65.45,-58.3 -71.04,-56.66 -113.95,-75.92 -149.75,-103.74 -60.55,-47.06 -11.98,-53.71 -139.18,-114.3 -195.75,-93.24 -318.69,-49.58 -418.14,-88.86 -32.86,-12.98 -48.1,-35.87 -86.57,-43.39 -52.85,-10.33 -61.98,8.18 -109.32,-14.22 -116.01,-54.86 -163.38,13.02 -342.3,-16.39 -40.76,-6.7 -84.47,-7.05 -120.6,6.64 -90.83,34.45 2.16,11.23 -103.12,26.6 -37.51,5.47 -67.1,14.25 -97.09,26.74 -34.74,14.48 -66.88,12.41 -105.3,24.37 -47.31,14.73 -69.21,1.86 -116.57,7.12l-193.46 60.29c-49.93,17.54 -113.62,69.95 -144.94,108.43 -30.25,37.15 -108,62.16 -147.71,105.79 -16.25,17.86 -21.82,18.41 -36.48,31.84 -15.85,14.52 -17.5,17.04 -32.97,28.9 -162.97,125.02 -172.9,244.94 -264.66,372.09 -45.31,62.78 -43.35,106.98 -70.45,182.96 -50.19,140.72 -35.4,297.08 12.45,432.77 20.1,56.99 51.07,122.66 78.93,174.6 28.05,52.32 80.39,91.82 127.51,125.93 83.32,60.33 260.98,120.06 386.96,126.3z"/>
    <path style="fill:#1E2125" d="M7659.62 3735.48c-119.22,10.82 -150.38,8.29 -244.65,60.45 -84.33,46.66 -113.57,78.38 -168.12,134.88 -45.35,46.96 -83.74,112.11 -110.96,191.88 -13.62,39.91 -30.77,238.78 -22.7,282.57 12.43,67.47 3.97,64.97 3.51,131.59 -0.39,57.3 6.97,149.15 29.81,199.34 37.8,83.09 27.03,101.71 51.84,177.07l120.37 337.42c13.43,39.9 27.68,72.45 40.05,114.43 32.08,108.83 90.07,204.33 143.1,308.17 23.08,45.2 92.75,131.8 121.18,182.2 27.24,48.29 39.05,51.74 69.06,85.34 12.96,14.52 20.54,27.63 33.68,40.55 67.06,65.93 220.33,214.81 298.2,239.74 80.16,25.65 145.41,61.23 225.78,83.17 42.22,11.52 76.88,17.64 113.2,35.49 38.09,18.72 86.84,13.51 134.52,19.09 175.06,20.51 337.08,1.78 491.13,-92.75 136.31,-83.66 116.65,-74.65 226.72,-224.59 30.2,-41.14 29.99,-54.77 52.35,-102.19 36.19,-76.74 51.2,-149.32 71.34,-236.95 27.17,-118.25 -55.1,-405.34 -112.59,-485.89 -21.39,-29.97 -43.95,-52.79 -64.51,-83.91 -22.09,-33.41 -41.33,-61.47 -63.99,-90.61 -17.89,-23 -19.13,-16.7 -38.78,-35.45 -15.15,-14.46 -25.43,-25.67 -40.11,-40.25 -72.96,-72.52 -152.7,-163.44 -204.14,-253.42 -19.21,-33.61 -26.87,-66.94 -47.1,-101.41l-226.68 -385.49 -134.82 -168.24 -168 -141.07c-131.92,-108.36 -400.47,-197.35 -578.69,-181.16z"/>
    <path style="fill:#1E2125" d="M2263.99 3737.27c-162.79,14.97 -115.93,16.7 -261.46,44.9 -95.41,18.49 -313.37,177.07 -370.26,235.9 -53.5,55.3 -170.85,188.7 -206.47,250.83l-110.51 192.8c-47.54,113.94 -66.53,115.02 -110.8,191.95 -66.12,114.9 -64.74,152.15 -194.12,269.78 -29.79,27.08 -41.86,45.62 -69.06,79.45l-104.02 124.96c-14.3,15.65 -23.16,20.61 -36.69,37.29 -27.64,34.07 -31.41,58.2 -55.15,99.41 -37.64,65.32 -62.79,145.73 -78.03,224.67 -22.26,115.32 -29.86,158.2 1.65,270.45 70.91,252.63 146.96,405.09 381.89,532.87 30.04,16.34 196.59,74.52 234.15,74.21 144.38,-1.18 148.39,8.59 286.01,-16.72 103.05,-18.95 372.77,-102.7 445.83,-160.22 59.04,-46.49 122.43,-85.24 175.72,-133.42l271.43 -334.69c22.08,-27.9 32.6,-62.32 51.94,-96.27l100.5 -208.69c40.57,-102.8 47.11,-134.22 72.69,-229.82 11.55,-43.13 34.44,-60.06 51.72,-103.54l67.18 -235.96c103.11,-318.08 39.96,-248.88 74.55,-524.38 6.77,-53.93 -30.03,-194.61 -47.28,-247.82 -18.26,-56.31 -26.82,-61.5 -55.6,-98.98 -23.99,-31.24 -41.94,-58.16 -68.81,-85.72 -86.25,-88.47 -274.02,-169.14 -447,-153.24z"/>
    <path style="fill:white" d="M4068.25 7635.12l0 6.21 1772.1 0c-21.25,-11.92 -233.91,-24.3 -369.76,-91.67 -85.57,-42.43 -175.28,-60.74 -214.68,-94.05 -30.51,-25.79 -62.89,-34.68 -95.71,-59.03 -60.28,-44.7 -118.09,-104.23 -164.3,-142.03 -24.59,14.81 -24.35,25.78 -40.41,43.48 -30.45,33.59 -102.99,76.96 -143.72,103.51 -54.21,35.33 -265.38,145.12 -327.89,166.74 -119.15,41.22 -286.3,74.96 -415.63,66.84z"/>
    <path style="fill:#1E2125" d="M7874.26 2377.86c-75.46,15.32 -114.86,53.07 -147.82,97 -27.88,37.16 -31.86,171.34 -15.78,219.56 12.22,36.63 71.62,123.98 98.4,148.45 100.29,91.65 247.09,108.06 314.93,-38.72 36.53,-79.02 29.05,-119 7.99,-203.52 -28.55,-114.67 -112.32,-252.28 -257.72,-222.77z"/>
    <path style="fill:#1E2125" d="M2089.43 2366.26l-30.94 0c-69.66,38.76 -93.82,37.27 -137.79,103.53 -31.22,47.04 -46.53,112.62 -68.56,172.56 -27.03,73.57 17.33,225.51 92.88,251.37 104.53,35.78 195.23,18.53 259.45,-72.27 36.48,-51.6 62.65,-92.25 78.51,-168.61 24.53,-118.06 -8.09,-201.92 -105.55,-250.62 -27.07,-13.53 -64.43,-18.22 -88,-35.96z"/>
    <path style="fill:white" d="M1804.88 4139.22c-59.63,19.19 -74.74,89.25 -101.43,135.56 -42.24,73.3 -151.2,267.64 -84.28,348.91 45.79,55.63 117.66,32.89 172.63,-7.07 100.99,-73.43 155.66,-108.96 212.21,-257.8 27.56,-72.54 34.63,-118.71 -12.82,-175.1 -19.4,-23.06 -31.01,-39.47 -74.85,-42.58 -32.95,-2.34 -85.02,-10.42 -111.46,-1.92z"/>
    <path style="fill:white" d="M7478.58 4103.75c-189.69,54.22 -176.81,353.17 -126.38,445.58 83.25,152.57 299.86,114.08 261.88,-188.13 -7.43,-59.12 15.42,-152.34 -9.14,-188.64 -36.82,-54.41 -71.25,-84.57 -126.36,-68.81z"/>
   </g>
  </g>
 </g>
</svg>