<svg xmlns="http://www.w3.org/2000/svg"  width="177.679mm" height="120.77mm" version="1.1" style="shape-rendering:geometricPrecision; text-rendering:geometricPrecision; image-rendering:optimizeQuality; fill-rule:evenodd; clip-rule:evenodd"
viewBox="0 0 17767.9 12077"
 >
 <defs>
 </defs>
 <g id="Слой_x0020_1">
  <metadata id="CorelCorpID_0Corel-Layer"/>
  <g id="_1973467328112">
   <path style="fill:#37AFFD" d="M4083.93 10359.09c-206.18,0 -814.71,-77.45 -1042.05,-110.55 -179.63,-26.16 -434.57,-121.19 -691.11,-173.35 -83.1,-16.89 -146.28,-47.39 -208.06,-80.09 25.96,-111.46 46.05,-292.02 59.41,-410.73 24.44,-217.16 13.24,-221.48 110.36,-374.94 100.84,-159.36 258.49,-463.57 364.48,-590.97 293.18,-352.41 550.8,-853.27 909,-1123.22 11.05,-8.33 22.46,-16.62 33.86,-26.8l392.38 -396.25c43.38,-45.06 58.66,-75.23 105.73,-121.76l249.68 -235.62c49.26,-41.19 74.46,-77.45 125.67,-116.99 376.99,-291.13 1087.78,-758.33 1495.68,-900.52l723.87 -231.59 610.22 -102.57c328.39,-61.31 285.56,-58.77 659.02,-68.94 85.78,-2.33 267.66,-46.29 438.78,-46.53 490.14,-0.68 415,-25.48 897.52,28.64 160.49,18 309.23,-7.68 466,19.31 134.03,23.07 246.66,58.45 394.9,75.24 293.61,33.24 540.75,53.51 841.85,113.59 147.43,29.42 248.87,71.53 389.84,95.47 143.48,24.37 291.09,26.32 421.09,64.22 74.83,21.81 325.14,87.78 395.95,89.36 -6.69,80.37 -88.23,178.7 -142.81,251.51 -30.47,40.64 -56.81,70.01 -86.88,110.27 -30.31,40.58 -53.12,70.78 -84.42,112.73l-705.66 886.76c-72.62,71.77 -127.54,123.21 -191.25,203.07 -138.55,173.68 -301.15,258.13 -423.33,380.45 -44.18,44.23 -58.32,52.67 -105.25,91.91 -38.62,32.27 -62.34,64.1 -99.07,98.08l-440.47 363.32c-211.86,158.85 -735.69,507.88 -967.01,640.57 -167.54,96.11 -349.28,175.02 -514.3,274.33 -273.15,164.38 -214.85,136.73 -516.32,287.47 -272.67,136.33 -252.4,134.55 -547.89,240.74 -97.88,35.17 -192.12,71.65 -288.15,106.16 -306.57,110.16 -452.71,196.75 -760.97,239.98 -75.49,10.58 -110.56,19.21 -166.05,31.1 -511.73,109.6 -1214.14,276.77 -1725.59,276.3 -134.52,-0.12 -233.91,30.84 -378.65,30.84zm11344.06 -8341.22c0,82.86 41.28,157.59 63.98,239.33l355.4 1237.02c50.29,172.98 68.14,346.45 117.55,519.41 25.68,89.9 54.15,147.92 75.94,242.55 67.49,293.09 23.95,190.48 134.45,502.51 80.8,228.18 133.08,528.41 186.56,768.89 21.69,97.52 35.46,167.86 55.69,262.79 20.24,94.92 41.71,149.42 41.71,276.78 -123.43,-28.76 -193.53,-89.42 -294.41,-145.4 -96.03,-53.3 -206.2,-77.67 -307.27,-132.54 -100.05,-54.3 -180.61,-105.01 -290.56,-149.25 -103.74,-41.75 -235.91,-63.65 -349.21,-105.77 -105.59,-39.27 -202.48,-95.11 -307.49,-132.32 -168.23,-59.62 -529.06,-177.17 -686.79,-208 -75.92,-14.83 -113.13,-26.41 -184.78,-42.7 -59.33,-13.48 -136.23,-35.16 -188.02,-39.47 55.35,-237.56 657.42,-1252.24 798.76,-1536.78l701.56 -1482.32c27.26,-64.15 1.7,-68.47 76.93,-74.73zm-2638.86 2790.51c-279.03,0 -684.07,-112.77 -948.94,-188.49 -152.57,-43.62 -302.71,-62.19 -467.87,-93.27 -328.36,-61.79 -641.92,-100.5 -970.52,-166.92 -505.91,-102.27 -1069.39,-85.44 -1584.8,-128.93 -661.83,-55.86 -1926.69,131.82 -2516.01,292.3 -138.37,37.68 -282.51,106.97 -421.96,154.35 -395.27,134.3 -827.22,311.84 -1170.24,543.49 -117.49,79.34 -236.48,147.29 -351.87,224.43 -114.42,76.49 -220.38,147.04 -331.59,229.55l-604.93 532.51c-99.25,100.14 -188.36,188.5 -288.12,288.19 -236.24,236.05 -578.4,630.67 -797.2,901.37 -215.32,266.4 -408.37,548.81 -576.38,849.21 -102.36,183.03 -214.08,359.71 -298.04,551.25 -171.45,391.15 -635.51,1422.95 -247.42,1823.84 193.98,200.38 426.09,331.29 705.73,386.21 151.02,29.65 313.81,48.24 460.47,85.5l876.46 215.48c83.74,20.81 134.7,39.77 218.75,54.23l791.27 42.85 806.57 -88.22c926.6,-113.16 1856.48,-321.56 2718.51,-663.47 347.2,-137.71 891.39,-387.97 1206.64,-598.1 134.22,-89.46 294.4,-163.13 435.06,-247.4 418.89,-251.01 838.81,-509.24 1215.89,-816.34 42.81,-34.86 84.96,-63.98 126.87,-100.62l365.27 -302.02c43.88,-37.09 83.26,-63.27 127.13,-100.36 86.58,-73.17 164.17,-131.83 243.56,-211.42l865.33 -939.4c62.63,-92.23 121.94,-176.2 189.21,-265.76 267.57,-356.25 493.26,-699.24 738.81,-1065.93 143.53,11.94 1135.46,319.99 1306.3,377.1 89.67,29.97 154.56,57.06 246.31,87.34 168.35,55.56 342.89,119.8 494.61,187.85 706.49,316.93 918.11,452.96 1528.88,821.84 80.48,48.61 155.59,87.95 276.02,87.95 129.35,0 362.58,-122.18 418.47,-203.33 144.91,-210.37 82.4,-530.36 30.19,-791.3l-136.46 -818.98c-35.43,-179.09 -81.94,-333.56 -116.46,-505.34 -103.97,-517.39 -237.7,-1035.63 -362.38,-1548.52 -81.35,-334.63 -197.41,-652.78 -285.22,-973.55 -137.81,-503.45 -290.93,-975.87 -437.45,-1473.44 -88.9,-301.87 -172.59,-669.27 -356.21,-917.73 -182.42,-246.83 -553.86,-287.33 -783.3,-74.36 -170.06,157.86 -213.51,398.76 -302.08,607.87 -46.42,109.61 -215.14,391.46 -313.13,611.99 -193.16,434.74 -245.27,506.1 -454.85,925.24 -140.96,281.9 -216.48,479.86 -383.08,754.36 -92.43,152.28 -157.34,307.55 -220.53,477.11 -20.42,54.8 -46.98,96.36 -78.58,148.9l-411.26 726.17c-63.39,105.47 -119.07,188.21 -175.43,294.72z"/>
   <path style="fill:#37AFFD" d="M3674.46 8812.17c0,281.31 251.17,515.64 530.8,515.64 162.66,0 254.04,-13.71 373.46,-172.52 145.88,-194.02 54.49,-495.66 -96.64,-665.44 -331.31,-372.21 -807.62,-35.42 -807.62,322.32z"/>
  </g>
 </g>
</svg>