<svg xmlns="http://www.w3.org/2000/svg" xml:space="preserve" width="92.975mm" height="63.044mm" version="1.1" style="shape-rendering:geometricPrecision; text-rendering:geometricPrecision; image-rendering:optimizeQuality; fill-rule:evenodd; clip-rule:evenodd"
viewBox="0 0 9297.5 6304.4"
 xmlns:xlink="http://www.w3.org/1999/xlink">
 <defs>
  </defs>
 <g id="Слой_x0020_1">
  <g id="_2366500654560">
   <path style="fill:#38AFFD" d="M51.87 5574.62c-14.18,227.44 95.68,266.56 217.28,373.16 121.49,106.5 422.99,119.3 582.63,164.7 40.17,11.42 73.21,28.29 111.53,35.23 45.94,8.32 82.94,8.03 128.65,19.7 112.47,28.73 253.57,73.55 365.54,87.16 73.22,8.9 194.82,-11.09 268.83,12.16l150.25 0c49.99,-23.97 359.65,-40.21 447.72,-53.09 73.01,-10.68 137.74,-28.64 207.95,-40.95 63.97,-11.22 145.82,-19.29 206.01,-34.31 70.42,-17.58 131.67,-29.77 206.06,-42.55 89.93,-15.44 499.1,-131.91 579.19,-159.36 70.25,-24.08 124.39,-28.13 187.48,-61.33 59.36,-31.24 105.54,-48.08 171.41,-77.73 60.67,-27.3 110.81,-55.54 167.83,-81.52 55.7,-25.37 112.81,-45.36 167.33,-72.58 27.94,-13.95 46.66,-33.1 79.16,-49.8 31.86,-16.38 45.69,-21.59 77.84,-42.08 24.46,-15.59 50.01,-31.68 79.86,-49.19 31.27,-18.35 49.09,-20.59 83.35,-37.07l297.92 -190.92c47.47,-32.09 100.45,-61.98 155.6,-93.65l296.21 -202.08c104.38,-77.99 234.05,-208.85 336.7,-281.6l140.4 -108.87c22.16,-21.21 36.79,-40.62 58.28,-61.29 22.76,-21.89 33.94,-39.49 55.97,-63.93l124.2 -125.17c53.95,-54.98 97.62,-122.53 178.19,-190.76 84.33,-71.42 158.89,-213.67 213.04,-275.94 80.39,-92.44 373.44,-513.34 401.79,-585.02 83.46,12.21 102.86,26.6 171.36,51.09 50.92,18.21 120.97,31.33 177.07,44.58 93.4,22.06 419.98,119.51 506.2,157.99 61.07,27.25 85.06,43.28 157.03,64.52 122.78,36.22 201.61,92.18 310.46,132.46 60.48,22.38 99.96,41.57 149.39,72.25 49.44,30.68 96.78,48.32 146.55,74.78l279.56 163.34c109.54,53.82 147.68,144.22 314.39,85.17 163.72,-57.99 172.03,-141.53 196.17,-227.69 5.2,-115.08 -15.75,-179.72 -37.13,-285.05 -38.81,-191.22 -25.39,-348.54 -86.69,-540.58 -22.12,-69.3 -40.53,-179.58 -57.12,-256.71 -33.09,-153.94 -72.64,-359.27 -123.14,-504.23 -37.69,-108.21 -69.63,-361.42 -127.93,-490.14 -34.4,-75.95 -41.09,-163 -68.64,-245.15 -29.87,-89.07 -45.91,-152.36 -64.31,-249.99 -17.17,-91.13 -51.56,-155.88 -78.65,-234.65 -26.09,-75.9 -53.52,-151.78 -72.95,-231.52 -35.43,-145.43 -111.91,-349.66 -146.6,-480.94 -46.83,-177.24 -101.98,-257.62 -257.56,-323.51l-29.18 -14.61 -106.68 0c-26.47,18.82 -57.81,20.9 -93.46,41.74 -76.41,44.65 -131.67,134.48 -159.99,218.8 -93.26,277.61 -91.53,196.4 -157.09,340.64 -49.08,108 -191.14,428.25 -245.97,510.97 -33.57,50.65 -212.43,461.77 -244.96,511.78 -21.49,33.04 -34.43,38.12 -53.94,74.85l-82.94 166.62c-12.28,28.34 -16.23,55.75 -31.98,87.88l-176.06 322.33c-57.38,88.21 -120.67,243.41 -190.24,308.77 -28.68,12.07 -468.73,-88.51 -523.7,-104.15 -90.57,-25.76 -372.02,-55.49 -528.15,-99.37 -95.51,-26.85 -182.85,-22.47 -268.41,-45.42 -93.17,-24.99 -181.78,-21.61 -278.18,-35.68 -128.48,-18.77 -468.08,-18.68 -595.67,-32.12 -131.36,-13.84 -445.91,18.61 -592.96,21.82 -73.35,1.6 -434.82,72.56 -535.86,90.64 -85.47,15.31 -190.13,18.93 -261.96,51.29 -77.1,34.74 -159.78,47.16 -234.73,79.11 -162.29,69.17 -497.54,200.58 -635.63,305.75 -113.81,86.69 -290.69,173.49 -379.61,247.96l-161.9 151.45c-47.43,45.48 -107.99,99.81 -170.91,142.94 -65.2,44.68 -102.92,107.84 -152.87,160.92 -26.51,28.17 -49.5,52.27 -77.17,79.87 -34.66,34.56 -46.35,50.59 -78.38,78.55 -44.94,39.23 -379.19,457.2 -421.16,519.66 -21.91,32.61 -42.75,66.57 -63.91,93.08 -65.31,81.84 -110.55,186.25 -174.06,296.47 -42.48,73.73 -79.82,113.86 -110.22,203.53 -27.12,79.99 -68.38,150.61 -90.87,222.71 -46.2,148.06 -113.52,347.94 -122.86,513.88z"/>
   <path style="fill:#FEFEFE" d="M633.68 5477.13c45.73,54.48 128.87,60.11 189.39,73.26 76.19,16.55 131.35,37.97 200.35,58.28 206.27,60.72 490.72,57.5 581.18,74.18 172.54,31.82 203.42,-4.64 357.44,-7.35 150.25,-2.65 320.76,-31.87 466.09,-58.48l326.07 -61.81c42.73,-8.87 60.71,-22.29 97.58,-31.63 184.27,-46.63 131.46,13.81 419.25,-106.93 125.08,-52.48 225.31,-73.56 379.87,-136.82 58.18,-23.81 119.7,-55.73 172.1,-86.37 60.76,-35.54 121.75,-57.38 180.53,-87.3 62.18,-31.64 100.78,-69.45 156.27,-101.56 59.78,-34.59 111.95,-42.87 175.73,-82.7 119.89,-74.87 295.44,-174.44 400.73,-254.58 25.5,-19.42 44.4,-41.27 69.64,-59.57 45.36,-32.9 110.78,-61.41 160.87,-97.53 103.93,-74.95 191.01,-161.78 280.43,-245.89 95.28,-89.62 190.61,-149.45 277.09,-239.19 23.1,-23.97 36.62,-47.52 59.2,-70.25 117.81,-118.59 330.41,-368.93 407.47,-506.06 21.04,-37.44 124.9,-131.44 226.71,-301.02 -4.41,-3.02 -5.43,-4.73 -19.61,-9.62 -1.5,-0.52 -27.6,-6.87 -29.97,-7.32 -19.49,-3.72 -38.49,-6.43 -55.67,-9.41 -42.88,-7.44 -63.11,-14.08 -102.73,-26.34 -65.2,-20.17 -151.74,-36.51 -222.85,-36.69 -73.63,-0.19 -140.2,-31.69 -206.16,-50.82 -104.75,-30.37 -172.86,-17.76 -338.09,-58.7 -48.28,-11.97 -84.22,-3.85 -132.14,-7.09 -148.37,-10.02 -226.13,-64.02 -482.16,-56.08 -64.79,2.01 -171.27,-15.17 -240.94,-22.39 -84.87,-8.8 -172.49,3.2 -257.08,0.34 -100.18,-3.39 -148.9,19.81 -239.83,26.07 -80.9,5.57 -155.49,1.57 -238.55,10.77 -80.26,8.89 -144.73,32.4 -221.28,45.4 -176.86,30.03 -277.27,28.33 -438.96,96.73 -213.18,90.18 -141.2,26.28 -388.73,146.14 -42.85,20.76 -124.25,62.9 -169.09,89.66l-402.64 261.36c-114.47,80.31 -219.46,201.89 -280.39,254.9 -168.71,146.74 -115.93,95.13 -265,270.66 -29.71,35 -41.57,37.05 -74.46,63.82 -128.93,104.95 -253.76,307.01 -350.87,442.52l-118.41 149.38c-47.39,53.33 -65.78,101.93 -107.76,159.84l-145.42 251.58c-19.8,63.12 -18.64,272.39 -55.2,344.61z"/>
   <path style="fill:#FEFEFE" d="M7087.26 2787.94c69.2,45.21 301.11,64.02 399.81,103.9 30.47,12.31 50.35,27.55 80.68,39.09 30.87,11.74 70.42,15.07 105.06,24.27 53.75,14.28 122.48,54.86 181.09,77.18 64.33,24.49 127.14,30 191.45,57.63 54.43,23.39 111.01,58.52 170.27,87.64 53.99,26.52 115.81,49.75 172.75,77.09 53.74,25.8 107.53,70.04 166.88,83.1 -32.52,-184.68 -75.22,-399.24 -125.28,-576.96 -13.41,-47.6 -24.16,-89.22 -35.68,-139.81 -12.45,-54.66 -31.46,-89.47 -48.57,-135.96 -18.27,-49.66 -16.79,-94.88 -28.75,-146.34 -11.65,-50.14 -31.37,-92.25 -45.34,-139.1 -24.61,-82.52 -40.04,-198.06 -63.33,-287.54 -13.89,-53.37 -34.5,-78.29 -49.56,-125.79 -18.41,-58.05 -16.68,-101.07 -30.31,-154.31 -22.74,-88.8 -71.78,-187.75 -86.06,-274.23 -6.39,-38.72 -56.69,-240.69 -84.36,-277.99l-154.73 324.37c-17.78,44.21 -23.71,79.83 -47.8,118.17 -45.99,73.18 -129.45,231.28 -159.41,320.68l-508.81 944.91z"/>
   <path style="fill:#38AFFD" d="M1680.58 4587.45c-138.16,44.86 -222.19,180.58 -174.41,335.49 18.27,59.26 65.38,117.93 117.52,150.18 55.8,34.51 141.39,64.82 225.41,46.89 122.74,-26.19 225.99,-189.61 157.11,-336.99 -51.2,-109.55 -147.15,-253.52 -325.63,-195.57z"/>
  </g>
 </g>
</svg>