<svg xmlns="http://www.w3.org/2000/svg"  width="177.679mm" height="120.77mm" version="1.1" style="shape-rendering:geometricPrecision; text-rendering:geometricPrecision; image-rendering:optimizeQuality; fill-rule:evenodd; clip-rule:evenodd"
viewBox="0 0 17767.9 12077"
 >
 <defs>
 </defs>
 <g id="Слой_x0020_1">
  <metadata id="CorelCorpID_0Corel-Layer"/>
  <g id="_1937932710336">
   <path style="fill:#A0A3A3" d="M5641.94 10139.6c-253.74,169.92 -579.03,45.54 -713.59,45.54 -243.18,0 -472.57,-7.5 -711.16,17.62 -104.25,10.95 -210.44,12.9 -336.45,12.74 -226.5,-0.27 -432.82,29.06 -662.14,-5.88 -187.91,-28.61 -938.31,-160.52 -1129.4,-252.22l100.69 -536.97c123.06,-414.92 340.22,-595.15 572.55,-1021.62 126.8,-232.78 501.05,-742.18 659.35,-934.85 127.06,-154.64 132.08,-193.59 288.16,-349.5 28.18,-28.17 49.5,-46.99 76.1,-75.73 65.29,-70.59 143.11,-185.25 246.53,-254.5 104.64,24.38 170.45,136.91 251.92,218.74 216.28,217.19 416.04,300.7 572.98,596.08 31.86,59.96 67.38,115.19 103.93,169.37 91.71,135.95 227.36,235.83 329.39,505.64 26.8,70.87 41.13,134.87 64.45,208.84 111.94,355.19 100.1,171.71 186.64,648.41 25.86,142.41 115.23,293.85 115.23,446.53 0,203.27 -15.18,354.37 -15.18,561.76zm9610.63 -7758.34l30.37 0c15.8,67.86 46.44,100.13 66.99,191.1 17.75,78.65 25.06,137.93 42.89,215.22 30.94,134.17 100.62,247.53 132.17,399.22 15.45,74.34 18.47,148.42 32.82,225.28 13.34,71.4 40.9,128.42 59.31,198.81l337.27 1499.83c22.55,107.5 189.6,415.14 193.96,610.73 -98.85,-52.3 -127.74,-41.59 -260.37,-134.38 -83.09,-58.15 -146.91,-107.84 -240.55,-154.22 -45.04,-22.3 -82.42,-40.94 -131.94,-65.42 -147.44,-72.9 -205.97,-180.9 -365.87,-226.26 -186.59,-52.95 -142.23,-93.37 -580.16,-209.33 -200.74,-53.16 -441.27,-96.18 -592.23,-197.27 29.45,-126.43 99.48,-179.38 156.77,-283.53 138.99,-252.62 138.33,-231.73 258.17,-425.04l394.99 -743.72c97.19,-193.02 421.4,-712.13 465.41,-901.02zm-5146.92 3476.82c-32.68,-140.23 -110.81,-247.31 -181.35,-365.22 -170.7,-285.32 -193.08,-384.95 -459.92,-633.23 -128.13,-119.24 -453.22,-299.67 -604.63,-95.61 -215,289.76 140.78,727.07 279.52,1012.83 35.17,72.44 44.16,140.51 78.09,210.39 30.86,63.55 66.97,129.57 98.79,189.68l-773.9 319.27c-40.49,17.77 -79.82,35.58 -128.29,53.9 -56.19,21.21 -83.7,27.32 -130.24,51.94 -46.64,-88.16 -86.04,-146.19 -128.12,-251.44 -97.75,-244.45 -63.69,-190.31 -193.87,-398.24 -75.72,-120.93 -123.43,-272.36 -206.96,-385.18 -83.53,-112.83 -181.14,-216.18 -254.2,-337.91 -73.48,-122.43 -85.64,-106.63 -206.91,-187.85 -45.39,-30.42 -69.49,-53.75 -114.95,-82.41 -203.55,-128.4 -549.9,-176.2 -549.9,155.14 0,161.25 128.27,363.83 194.61,473.43 92.77,153.23 150.54,292.32 230.39,452.82 38.34,77.08 83.39,138.41 121.78,212.25 42.51,81.77 70.71,149.85 108.08,241.11 48.41,118.22 168.59,372.87 195.37,487.86 -225,150.65 -470.99,220.11 -728.58,334.19 -63.42,28.1 -108.93,60.96 -167.11,91.01 -62.77,32.41 -110.04,66.72 -177.83,95.45l-384.01 147.39c-60.12,-89.79 -107.62,-193.12 -177.45,-278.04 -78.95,-96.03 -124.1,-171.29 -181.8,-288.87 -84.12,-171.37 -394.01,-483.18 -558.34,-610.71 -155.44,-120.65 -225.19,-292.34 -337.54,-376.05 -94.42,-70.35 -214.32,-91.94 -289.34,-181.33 -142.75,-170.09 -188.82,-178.02 -414.1,-178.02 -205.89,0 -330.03,107.11 -459.31,239.08 -95.35,97.35 -395.5,335.9 -448.79,416.62 -113.29,171.65 -272.93,320.17 -397.6,482.99 -52.62,68.74 -115.88,113.55 -169.31,179.9 -146.93,182.51 -171.25,250.02 -286.07,412.33 -49.09,69.39 -94.86,128.39 -141.59,207.62 -129.14,218.87 -281.13,417.86 -411.68,635.92 -79.16,132.24 -198.1,299 -261.91,436.49 -41.21,88.78 -177.89,399.12 -201.52,496.9 -46.92,194.21 -66.05,400.71 -94.27,604.11 -58.56,421.96 -149.39,644.56 387.08,893.32 157.56,73.07 340.64,148.82 511.98,186.43l586.8 111.61c305.13,43.47 645.92,77.88 961.53,86.08l561.3 15.62c389.41,0 149.5,-110.31 839.52,-19.65 759.3,99.76 687.57,-64.15 1166.57,-206.12 488.79,-144.87 350,-724.56 404.42,-1160.6 20.82,-166.84 -73.27,-726.04 -137.5,-886.64 -53.34,-133.37 -82.84,-267.41 -117.06,-414.32 164.17,-78.77 506.77,-175.33 729.18,-272.86 118.45,-51.95 230.21,-94.35 353.2,-147.83 62.17,-27.03 101.46,-46.86 169.19,-73.75 66.8,-26.51 123.59,-47.67 175.6,-82.5 106.87,222.74 155.55,518.01 218.54,768.34 24.65,97.94 39.99,169.1 61.09,272.93 54.14,266.45 -29.92,627.12 231.54,770.51 201.17,110.31 444.95,132.25 599.86,-63.07 193.77,-244.29 87.5,-520.3 47.25,-796.61 -55.76,-382.83 -173.69,-739.23 -274.57,-1107.03 -19.23,-70.1 -48.67,-162.09 -48.67,-239.82 312.32,-25.98 667.48,-372.12 1002.06,-379.56 0,133.43 55.31,279.25 80.34,405.51 51.15,258.05 -52.12,624.38 118.85,852.84 244.28,326.42 624.6,153.26 736.47,-34.22 90.23,-151.23 54.95,-356.7 50.74,-510.08 -6.13,-222.7 -34.81,-601.09 -79.38,-816.4 -15.26,-73.72 -53.39,-151.91 -71.97,-231.67 96.48,-51.06 451.86,-176.96 568.58,-205.74 170.67,-42.06 240.94,-92.14 389.61,-141.79 335.3,-111.94 697.83,-188.07 1036.53,-299.53 191.57,-63.06 387.12,-137.42 566.07,-223.43l369.88 -161.52c37.03,-18.98 141.29,-91.52 181.77,-91.52 121.32,0 356.14,127.95 472.25,165.44 170.19,54.93 349.08,69.93 504.52,148.33l420.03 217.64c146.04,72.63 287.71,142.54 418.91,233.94 134.25,93.53 276.25,137.53 410.18,227.51 135.75,91.2 249.39,176.33 376.75,276.1 130.23,102.01 264.85,160.35 390.74,262.11 141.76,114.58 206.7,260.5 437.91,260.5 100.6,0 264.52,-53.85 327.9,-97.23 269.24,-184.21 108.06,-487.65 66.59,-737.56 -83.97,-505.91 -141.34,-821.82 -344.75,-1294.99 -131.85,-306.68 -295.27,-940.48 -342.53,-1297.2 -18.9,-142.74 -61.65,-315.78 -100.12,-446.46 -63.12,-214.42 -134.23,-423.47 -180.42,-639.44 -17.51,-81.89 -23.91,-158.31 -47.14,-226.14 -42.86,-125.09 -79.6,-315.25 -123.21,-423.37 -163.06,-404.28 -270.23,-867.89 -331.66,-1308.06 -22.24,-159.38 -49.45,-314.77 -113.33,-433.26 -43.52,-80.69 -223.1,-232.16 -329.6,-232.16 -386.53,0 -521.17,155.42 -587.9,490.07 -32.99,165.44 -125.85,340.15 -190.51,492.71 -65.94,155.61 -151.26,292.72 -217.13,450.92l-315.23 702.01c-76.52,153.27 -176.97,276.44 -253.16,430.05 -37.32,75.25 -71.71,143.2 -111.2,222.82 -83.5,168.37 -200.74,309.79 -280.63,478.51 -11.79,24.92 -15.34,37.43 -27.79,63.31 -24.56,51.1 -41.37,69.06 -69,113.18 -85.54,136.64 -186.99,268.03 -248.84,419.21 -125.37,306.45 -295.89,489.57 -359.77,657.46 -42.65,112.07 -75.25,121.45 -173.01,176.19l-739.47 277.77c-256.77,86.86 -533.68,137.53 -789.67,227.57 -204.29,71.85 -413.39,167.44 -619.85,230.37 -49.68,15.14 -84.67,20.11 -131.8,35.21 -64.56,20.73 -194.37,84.07 -259.7,89.5z"/>
   <path style="fill:#A0A2A3" d="M4138.86 9274.18c130.2,0 223.07,-34.17 297.77,-96.96 294.23,-247.28 32.67,-920.28 -328.14,-920.28l-106.28 0c-260.68,0 -628.09,309.49 -340.39,719.96 25.03,35.71 30.27,37.72 53.85,67.61 87.16,110.43 259.59,229.67 423.19,229.67z"/>
  </g>
 </g>
</svg>