<svg xmlns="http://www.w3.org/2000/svg" xml:space="preserve" width="92.975mm" height="63.044mm" version="1.1" style="shape-rendering:geometricPrecision; text-rendering:geometricPrecision; image-rendering:optimizeQuality; fill-rule:evenodd; clip-rule:evenodd"
viewBox="0 0 9297.5 6304.4"
 xmlns:xlink="http://www.w3.org/1999/xlink">
 <defs>
  </defs>
 <g id="Слой_x0020_1">
  <g id="_2331139032480">
   <path style="fill:#A1A3A4" d="M110.81 5608.63c-9.75,93.86 41.46,191.14 90.19,236.39 65.08,60.42 375.33,189.12 467.68,199.89 77.76,9.07 196.3,39.82 279.64,54.48 205.61,36.15 716.67,73.78 927.37,57.55 59.7,-4.6 86.51,-18.38 140.96,-24.86 242.88,-28.92 419.49,109.42 739.54,-23.3 41.85,-17.35 71.46,-38.47 112.8,-54.07 42.77,-16.15 88.28,-19.43 124.06,-42.89 200.64,-131.48 142.62,-316.1 160.2,-505.31 12.47,-134.27 13.19,-176.49 -5.87,-306.59 -11.73,-80.05 -24.12,-218.45 -50.27,-284.05 -28.49,-71.52 -60.64,-174.45 -73.6,-253.59 75.44,-42.54 240.54,-73.2 405.39,-153.6 105.16,-51.29 334.64,-138.5 382.51,-167.14 34.55,47.27 158.3,554.55 168.22,647.72 23.65,222.25 -10.64,336.27 210.82,401.4 181.22,53.3 310.3,-102.15 310.5,-273.75l-54.65 -353.7 -170.21 -639.31c51.76,-12.61 104.99,-23.13 147.91,-49.17 79.21,-48.05 333.01,-162.01 409.36,-166.53 8.07,118.45 40.54,157.25 51.86,268.11 9.69,94.96 -11.64,184.02 3.84,285.69 25.49,167.4 162.46,304.98 344.12,228.12 189.18,-80.05 171.35,-215.18 157.25,-445.73 -5.53,-90.27 -18.32,-184.74 -30.14,-275.59 -5.93,-45.6 -4.61,-95.24 -18.32,-138.24 -14.47,-45.36 -28.74,-61.49 -36.77,-114.97 68.5,-9.26 79.52,-25.13 130.68,-48.32 76.03,-34.46 176.28,-55.04 257.65,-76.92 47.14,-12.68 73.93,-34.56 115.39,-51.39 71.51,-29.03 425.99,-119.51 520.42,-147.78 79.4,-23.78 161.18,-58.32 247.72,-86.4l348.71 -152.21c31.21,-13.75 90.87,-52.8 109.02,-54.97 56.33,-6.72 191.74,70.78 243.54,86.76 97.87,30.19 165.03,27.4 265.59,68.12l440.94 227.27c36.13,23.84 66.22,46.46 98.43,68.54 33.04,22.64 70.85,37.19 110.83,56.07 146.41,69.13 329.65,241.03 396.65,271.65 198.44,90.67 191.56,269.43 435.81,207.46 290.81,-73.79 173.23,-305.57 147.42,-447.43 -17.69,-97.24 -28.67,-188.77 -48.88,-285.54 -19.54,-93.6 -48.43,-169.79 -71.61,-262.2 -21.32,-85 -70.29,-155.83 -97.38,-236.75 -35.1,-104.84 -27.63,-116.81 -77.36,-256.52l-70.35 -263.93c-10.84,-48.01 -14.93,-95.76 -20.62,-145.76 -20.74,-182.14 -142.92,-510.25 -166.84,-668.74 -8.62,-57.14 -24.07,-78.05 -39.93,-126.98 -15.61,-48.19 -18.5,-92.2 -32.27,-134.79l-85.33 -248.61c-24.94,-84.65 -42.56,-182.31 -66.17,-268.01 -48.44,-175.84 -35.99,-421.77 -137.1,-530.58 -42.26,-45.47 -134.2,-118.08 -233.12,-91.19 -251.99,49.24 -234.4,225.33 -263.58,311.09l-111.2 268.86c-21.87,45.95 -44.79,75.6 -65.16,120.38 -22.87,50.27 -31.75,82.29 -56.82,129.41 -24.13,45.38 -34.78,79.3 -53.7,131.63 -35.97,99.51 -79.3,159.7 -122.23,257.8 -27.33,62.47 -43.72,65.31 -73.5,112.38l-129.6 251.06c-35.29,71.45 -118.62,183.04 -139.28,231.68 -49.76,117.07 -83.89,142.08 -141.88,238.49 -40.06,66.6 -109.99,245.48 -195.47,361.16 -72.26,97.79 -47.33,139.41 -110.09,177.76 -215.85,131.9 -656.03,231.06 -906.74,309.08l-270.14 100.45c-102.31,45.72 -125.66,26.67 -272.74,94.58 -16.51,-34.59 -29.49,-80.73 -50.62,-115.04l-119.7 -195.83c-26.36,-41.15 -28,-63.66 -56.05,-101.54 -53.37,-72.07 -37.06,-39 -80.2,-86.86 -233.2,-258.66 -434.89,-187.73 -435.32,28.89 -0.24,119.06 149.89,313.02 197.37,431.64 14.02,35.02 27.06,86.82 41.58,116.41 18.52,37.76 37.87,56.29 52.62,101.22 -38.12,31.86 -96.14,33.82 -146.33,54.1 -143.48,57.99 -259.94,117.17 -426.73,177.33 -23.47,-48.06 -51.28,-91.84 -71.65,-149.05 -83.06,-233.16 -47.23,-88.97 -147.83,-297.28 -80.4,-166.51 -93.55,-140.2 -180.19,-265.34 -110.66,-159.83 -3.68,-47.12 -165.99,-168.05 -58.38,-43.49 -144.48,-102.45 -228.95,-92.22 -55.97,6.77 -108.93,54.29 -121.3,102.25 -38.48,149.15 133.84,325.65 190.33,474.66 43.03,113.5 102.5,178.61 149.59,295.66 22.87,56.85 43.11,96.29 64.92,157.84l61.13 155.46c-1.82,1.65 -4.37,3.69 -5.66,4.68 -90.81,69.06 -304.43,140.13 -402.44,184.16 -46.54,20.9 -93.98,56.75 -193.03,103.53 -65.97,31.16 -134.18,56.17 -208.82,77.83 -49.15,-109.5 -98.91,-147.46 -157.85,-240.42 -27.99,-44.14 -35.43,-82.37 -69.04,-125.89 -28.21,-36.54 -60.36,-62.99 -91.61,-103.41 -49.32,-63.77 -134.83,-139.37 -198.57,-190.8 -116.27,-93.81 -116.3,-163.34 -182.17,-207.75 -38.32,-25.83 -89.39,-40.71 -128.07,-66.85 -38.74,-26.19 -40.65,-65.76 -94.64,-99.98 -77.94,-49.4 -252.66,-38.6 -316.31,11.67 -120.81,95.42 -199.92,185.34 -309.5,274.97 -49.97,40.87 -95.01,117.36 -135.73,161.55l-132.42 154.76c-30.93,41.17 -64.75,60.68 -94.45,100.31 -27.36,36.51 -60.44,74.36 -85.74,109.47 -30.11,41.8 -46.88,80.13 -73.92,120.66 -26.48,39.7 -55.05,74.55 -79.92,114.75 -55.25,89.31 -91.95,154.5 -155.62,234.07l-220.25 364.76 -113.88 275.2 -81.14 514.86z"/>
   <path style="fill:white" d="M644.47 5494.57c322.13,101.05 181.33,59.21 502.36,119.19 256.74,47.96 367.73,23.25 589.52,22.95 72.53,-0.1 144.32,-15.44 222.63,-16.81 79.53,-1.4 162.11,-2.79 241.54,-2.44 152.08,0.68 107.12,50.09 323.2,15.52 51.16,-8.19 54.79,-20.73 94.51,-32.59 2.26,-61.16 -5.67,-101.72 4.17,-163.59 35.01,-220.14 -52.23,-316.93 -67,-441.9 -10.25,-86.72 -45.5,-198.01 -77.43,-267.3 -34.71,-75.32 -41.11,-204.16 -161.09,-358.27 -28.68,-36.83 -53.48,-58.04 -80.36,-95.67 -45.36,-63.53 -85.22,-168.93 -139.7,-213.24 -108.04,-87.85 -93.26,-100.17 -181.61,-161.58 -94.68,-65.81 -96.62,-131.71 -188.14,-167.9 -52.14,31.86 -119.82,124.11 -174.76,181.23 -123.21,128.11 -44.23,42.63 -161.53,191.23 -145.23,183.97 -330.29,429.48 -430.73,636.21 -33.32,68.58 -190.58,225.93 -259.39,455.31 -27.79,92.6 -36.53,203.52 -56.19,299.65z"/>
   <path style="fill:white" d="M7267.93 2583.92c107.93,72.28 373.88,111.61 496.58,160.73 63.26,25.32 82.47,47.95 154.68,67.4 69.15,18.63 90,51.73 137.68,85.48 82.61,58.46 143.63,64.02 280.14,165.21 54.32,40.27 80.8,46.89 140.99,74.15 -24.66,-69.56 -34.83,-141.19 -63.97,-216.2 -13.73,-35.32 -37.34,-67.84 -46.54,-101.38 -9.7,-35.37 -12.29,-87.08 -20.86,-128.33l-167.5 -722.88c-11.69,-42.36 -26.74,-68.59 -35.88,-112.41 -9.31,-44.64 -7.85,-82.77 -18.43,-130.12 -19.19,-85.85 -56.68,-144.34 -73.32,-223.85 -16.09,-76.89 -26.08,-175.64 -69.77,-226.44 -40.36,97.14 -114.71,247.44 -168.4,334.15 -31.77,51.29 -59.8,105.49 -90.18,160.21 -32.27,58.11 -61.62,106.33 -88.79,171.18 -27.06,64.62 -56.45,107.65 -85.39,165.28 -67.09,133.62 -103.32,140.84 -188.24,312.46 -28.06,56.72 -79.52,102.14 -92.8,165.36z"/>
   <path style="fill:#A1A3A4" d="M1688.03 4546.07c-190.91,28.88 -265.49,216.93 -219.74,318.81 52.92,117.88 159.12,246.21 323.55,252.24 262.46,9.63 311.25,-320.29 110.59,-509.61 -49.33,-46.53 -121.12,-75.54 -214.4,-61.44z"/>
  </g>
 </g>
</svg>