<svg xmlns="http://www.w3.org/2000/svg" xml:space="preserve" width="102.369mm" height="53.576mm" version="1.1" style="shape-rendering:geometricPrecision; text-rendering:geometricPrecision; image-rendering:optimizeQuality; fill-rule:evenodd; clip-rule:evenodd"
viewBox="0 0 10236.9 5357.6"
 xmlns:xlink="http://www.w3.org/1999/xlink">
 <defs>
  </defs>
 <g id="Слой_x0020_1">
  <g id="_2331381160688">
   <path style="fill:#64666E" d="M232.64 3896.19c-4.1,-30.38 -0.68,-32.88 6.26,-53.97 31.48,-95.68 48.64,-95.27 100.23,-189.8 117.68,-181.91 303.8,-310.79 130.73,-451.27 -24.05,-123.49 85.07,-349.56 215.71,-330.29 32.33,4.76 37.34,18.99 52.92,36.65 10.45,-39.79 40.94,-55.87 71.33,-73.19 214.14,-121.98 530.79,-158.02 788.96,-158.02 205.89,0 328.97,2.14 470.8,72.91 194.01,96.81 230.21,205.4 293.61,254.02 67.69,-20.94 85.45,-34.91 137.78,7.5 31.07,25.18 61.17,52.82 81,94.28 30.58,63.89 34.96,157.1 -4.02,217.62 -13.93,13.3 -34.05,31.22 -49.18,41.94 14.63,16.39 1.16,4.35 19.44,17.49 39.96,55.64 22.33,400.4 245.08,642.18 55.15,59.85 108,94.43 180.92,116.9 76.19,23.47 330.32,151.32 412.9,192.01 232.83,114.74 148.3,78.33 375.97,221.02l-13.27 20.87c42.73,-9.23 75.5,3.69 102.9,28.96 68.78,63.46 122.61,139.15 211.37,183.38 73.98,36.87 94.28,69.41 146.51,116.14 110.25,98.58 374.7,237.22 531.39,266.58 38.11,7.13 77.52,4.26 114.27,16.01l99.86 33.57c108.1,34.54 132.85,13.55 239.91,27.89 -85.98,-97.18 -152.69,-163.05 -229.89,-266.81 -64.69,-86.94 -207.87,-213.07 -199.43,-293.73 67.49,-11.72 133.02,83.19 158.2,116.01 37.74,49.18 98.23,110.38 143.62,145.61 55.61,43.15 84.03,89.46 132.93,147.21l136.81 153.31c150.5,-10.93 372.86,-69.7 443.09,-150.7 -36.13,-48.03 -94.24,-74.29 -133.78,-115.34l-116.96 -119.65c-75.13,-77.62 -212.16,-177.95 -214.24,-257.81 101.73,12.95 183.21,121.03 314.39,201.24 71.29,43.59 84.93,69.58 139.43,115.18 65.37,54.7 64.14,44.98 113.33,78.98 37.02,25.58 21.35,8.01 25.51,35.44 57.46,-23.97 65.97,-79.52 83.67,-149.15 22.06,-86.79 -9.29,-111.96 -19.08,-186.87 -14.25,-109.11 -41.58,-157.45 -86.61,-246.61 -38.19,-75.65 46.2,-97.78 90.24,-63.42l32.09 48.98c0.58,-1.37 2.18,4.41 3.52,6.47 13.17,-12.32 1.14,-4.04 20.75,-14.03 2.76,-1.4 11.41,-4.98 14.36,-6.03l117.58 -14.14c252.11,1.17 152.69,32.48 453.22,-11.24 86.23,-12.55 202.26,-14.92 303.77,-28.05 97.65,-12.62 196.48,-24.98 293.32,-41.17 188.11,-31.47 371.4,-67.9 555.96,-110.25 134.62,-30.88 446.5,-96.03 579.49,-58.75 23.44,22.46 32.66,42.06 39.87,75.59 147.96,18.42 285.4,77.99 396.52,138.25 65.18,35.34 122.51,38.64 190.44,72.48 68.47,34.09 118.03,53.05 195.06,67.77 226.8,43.34 470.4,251.35 568.75,203.51 47.87,-23.31 104.07,-91.88 129.6,-140.96 -26.98,2.46 -191.27,-97.88 -220.04,-119.85 -18.14,-13.84 -26.32,-25.72 -47.43,-40.05 -63.99,-43.41 -108.9,-46.09 -166.96,-96.31 -101.47,-87.75 -374.29,-160.22 -420.25,-276.31 336.46,40.79 301.83,97.92 502.3,176.74 48.84,19.19 64.04,45.11 103.79,71.68 59.74,39.94 279.73,145.96 297.29,200.04 33.99,-24.57 80.24,-203.4 92.93,-257.48 15.44,-65.71 7.72,-261.36 -29.46,-303.46l-4.45 28.51c-190.48,-70.25 -275.03,-52.83 -384.29,-77.97 -59.62,-13.71 -129.54,-38.75 -194.52,-43.67 -78.94,-5.98 -130.38,-1.16 -171.75,-50.83 30.63,-38.7 73.97,-69.44 145.3,-70.03 47.62,-0.38 158.29,0.44 201.97,5.13 48.1,5.16 115.83,30.46 172.12,41.36 52.95,10.23 136.61,12.59 184.98,32.25 -29.3,-110.84 -134.51,-234.75 -198.09,-290.85 -55.29,-48.76 -33.03,-17.36 -128.4,-108.31 -102.71,-97.96 -334.98,-189.59 -470.09,-239.71 -83.41,-30.95 -95.84,-30.02 -189.44,-48.67 -66.01,-13.15 -111.99,-51.6 -109.33,-127.63 13.16,-22.07 44.53,-53.3 64.76,-68.33 45.89,-34.1 148.64,-160.64 177.1,-208.63 42.35,-71.42 148.54,-265.36 169.68,-338.98 20.95,-72.96 53.43,-117.93 75.71,-186.4 44.36,-136.37 9.6,-296.64 -40.69,-422.04 -19.9,-49.64 -25.06,-191.28 -42.31,-214.86 6.46,101.23 -123.46,363.9 -176.68,473.2 -43.67,89.71 -179.14,385.2 -269.35,352.44 -27.72,-24.8 59.94,-201.22 77.28,-237.72 54.35,-114.44 75.69,-196.96 94.86,-238.05 17.35,-37.19 40.5,-71.54 54.6,-112.06 24.33,-69.92 82.23,-249.61 92.03,-321.31 4.21,-30.81 5.22,-40.71 25.81,-55.1 -34.58,-55.72 -131.5,-120.01 -186.79,-158.24 -72.33,-50 -184.92,-45.4 -252.9,-8.63l-9.76 6.62c26.9,139.65 -14.44,527.7 -39.52,673.83 -16.71,97.39 -34.94,208.54 -58.59,300.54 -12.39,48.19 -86.47,201.32 -130.6,221.52 -22.11,-49.54 13.22,-216 31.11,-268.23 57.8,-168.78 53.19,-381.5 73.23,-557.44 18.92,-166.29 -5.69,-235.94 2.4,-289.4 -62.91,34.15 -79.8,104.59 -125.27,166.05 -44.59,60.26 -75.3,93.28 -107.35,173.73 -37.99,95.3 -90.14,333.04 -124.29,436.56 -22.81,69.19 -56.76,134.9 -75.21,212.2 -22.31,93.45 -49.43,119.94 -79.1,203.91 -12.13,34.33 -17.69,73.95 -28.38,110.71 -10.28,35.43 -25.19,64.26 -38.24,102.32 -23.43,68.36 -49.4,178.86 -133.74,94.67 -1.37,1.48 -3.21,2.05 -3.75,4.78 -0.77,3.91 -6.25,7.95 -7.55,9.66l-14.96 19.97c16.09,94.85 89.42,149.23 94.27,228.42 -56.8,1.36 -120.27,-39.52 -158.36,-68.03 -49.44,-36.98 -60.72,-74.08 -93.44,-135.19 -100.98,-188.69 -63.44,-118.79 -132.17,-323.57 -21.62,-64.42 -98.09,-178.04 -152.63,-302.02 -30.14,-68.51 -76.8,-134.37 -119.11,-223.63 -17.73,-37.39 -26.88,-40.41 -45.52,-67.7 -34.34,-50.29 -44.38,-102.22 -77.13,-150.91 -33.43,-49.73 -69.62,-75.4 -97.72,-130.86 -32.93,-64.99 -58.35,-66.74 -93.69,-133.86 -34.39,-65.32 -53.38,-86.55 -93.31,-134.48 -35.65,-42.82 -85.86,-60.52 -115.7,-112.67 -69.7,-121.79 -171.11,-150.58 -227.2,-228 -55.96,-77.18 -140.78,-115.2 -182.98,-150.35 -72,-59.95 -47.47,-68.98 -202.62,-138.69 -67.33,-30.25 -74.31,-62.87 -134.98,-93.6 -59.98,-30.38 -130.8,-55.13 -231.31,-110.01 -23.17,-12.66 -50.92,-29.12 -74.28,-40.45l-322.54 -133.39c-123.32,-27.96 -143.91,-74.41 -344.41,-99.83 -77.93,-9.88 -114.14,-42.35 -178.88,-51.37 -36.27,-5.05 -65.97,-7.22 -101.01,-14.11 -36.34,-7.15 -51.91,-18.9 -85.54,-27.6 -63.6,-16.45 -132.44,-13.38 -198.24,-29.02 -81.61,-19.4 -120.92,-17.66 -207.71,-20.61 -69.02,-2.37 -117.71,-26.33 -198.69,-23.12 -80.15,3.18 -129.12,-7.21 -204.44,-8.34l-840.67 58.2c-65.89,5.51 -127.16,28.21 -194.03,37.39 -148.9,20.44 -226.55,57.31 -358.52,94.43l-333.59 122.34 -303.25 153.36c-58.44,29.96 -87.8,59.47 -131.16,96.39 -90.57,77.12 -117.55,55.99 -245.15,210.56 -111.57,135.17 -113.67,87.27 -223.46,232.58 -41.23,54.6 -69.08,68.79 -104,115.08 -90.87,120.45 -114.09,110.35 -208.37,247.38 -167.2,243.04 -372.8,608.5 -448.9,909.19 -16.18,63.95 -20.24,126.95 -35,195.25 -37.2,172.02 -104.19,371.66 -130.24,551.36 -10.67,73.61 -31.58,109.95 -52.19,175.61 -17.95,57.17 -33.1,121.3 -49.55,178.91 -23.97,83.92 0.12,257.52 21.92,340.74l16.87 39.65z"/>
   <path style="fill:#989DA6" d="M738.49 2907.51c33.13,79.4 -1.4,167.01 -35.94,231.42 -101.8,60.76 -118.84,83.85 -188.84,113.77 -16.22,18.49 -105.19,272.63 -174.58,399.72 -51.59,94.53 -68.75,94.12 -100.23,189.8 -6.94,21.09 -10.36,23.59 -6.26,53.97 12.5,63.39 62.98,155.04 98.02,206.59 21.84,32.12 40.22,55.39 55.02,94.4 24.66,65.01 13.98,51.09 55.26,93.04 25.45,25.85 44.51,64.2 68.42,89.44 23.03,24.3 49.36,40.23 78.38,70.73 85.18,89.62 93.33,75.33 161.18,137.01 64.59,58.71 96.95,57.27 215.42,90.66 118.81,33.51 626.11,117.97 756.6,138.33 89.65,14 192.22,12.91 276.22,30.56 233.78,49.13 614.81,15.74 816.76,43.43 67.71,9.29 81.97,-7.6 143.37,-6.43 49.65,0.94 91.46,10.4 140.18,13.75 128.97,8.87 304.37,4.86 435.12,-14.58l415.26 -32.54c-69.34,-57 -73.89,-53.12 -126.21,-128.01 -17,-24.34 -92.12,-123.97 -71.83,-147.53l13.27 -20.87c-227.67,-142.69 -143.14,-106.28 -375.97,-221.02 -82.58,-40.69 -336.71,-168.54 -412.9,-192.01 -72.92,-22.47 -125.77,-57.05 -180.92,-116.9 -222.75,-241.78 -205.12,-586.54 -245.08,-642.18 -12.55,-16.61 0.09,-3.7 -17.26,-16.08 -153.2,49.27 -229.59,-256.54 -167.76,-362.75 -63.4,-48.62 -99.6,-157.21 -293.61,-254.02 -141.83,-70.77 -264.91,-72.91 -470.8,-72.91 -258.17,0 -574.82,36.04 -788.96,158.02 -30.39,17.32 -60.88,33.4 -71.33,73.19z"/>
   <path style="fill:#0D0E11" d="M7857.53 2826.34c84.34,84.2 110.31,-26.3 133.74,-94.66 13.05,-38.06 27.96,-66.89 38.24,-102.32 10.69,-36.76 16.25,-76.38 28.38,-110.71 29.67,-83.96 56.79,-110.46 79.1,-203.91 18.46,-77.3 52.4,-143.01 75.22,-212.21 34.14,-103.51 86.29,-341.25 124.28,-436.56 32.06,-80.44 62.77,-113.46 107.35,-173.72 45.47,-61.46 62.36,-131.9 125.27,-166.05 22.52,-27.76 81.66,-64.14 121.97,-80.82l9.76 -6.62c67.98,-36.77 180.57,-41.36 252.9,8.63 55.3,38.23 152.21,102.52 186.79,158.24 28.47,40.79 90.37,106.81 101.45,138.6 17.26,23.58 22.41,165.22 42.31,214.85 50.29,125.41 85.06,285.68 40.69,422.05 -22.28,68.47 -54.76,113.44 -75.71,186.41 -21.14,73.62 -127.33,267.55 -169.68,338.96 -28.46,48 -131.21,174.55 -177.1,208.64 -20.23,15.03 -51.61,46.26 -64.76,68.33 -2.66,76.03 43.32,114.49 109.33,127.63 93.6,18.65 106.03,17.72 189.44,48.67 135.11,50.12 367.38,141.75 470.1,239.71 95.36,90.95 73.1,59.54 128.39,108.32 63.58,56.09 168.79,180 198.09,290.84 29.31,22.99 55.17,91.62 50.64,135.25 37.18,42.1 44.9,237.75 29.46,303.46 -12.69,54.08 -58.94,232.9 -92.93,257.49 -3.4,29.85 -22.45,64.2 -48.7,84.05 -25.53,49.08 -81.73,117.65 -129.6,140.95 -98.35,47.85 -341.95,-160.16 -568.75,-203.5 -77.03,-14.72 -126.59,-33.68 -195.06,-67.77 -67.93,-33.83 -125.26,-37.13 -190.44,-72.48 -111.12,-60.26 -248.56,-119.83 -396.52,-138.25l-251.96 86.75c-74.34,22.65 -481.96,138.45 -538.81,145.25 -49.79,5.95 -93.29,17.85 -143.52,26.92 -50.57,9.13 -99.2,11.39 -154.81,18.51 -79.6,10.18 -232.99,39.58 -300.81,34.14l-439.12 56.15c-55.5,9.61 -107.53,2.31 -164.43,11.25 -48.95,7.71 -91.58,19.82 -140.23,25.66 -53.24,6.39 -110.44,3.98 -160.86,12.16 -32.72,-62.4 -32.54,-158.49 -83.77,-208.72 -1.34,-2.06 -2.94,-7.84 -3.52,-6.47l-32.09 -48.98c-44.05,-34.36 -128.43,-12.22 -90.24,63.42 45.03,89.16 72.36,137.51 86.61,246.61 9.78,74.91 41.14,100.07 19.08,186.87 -17.7,69.62 -26.22,125.18 -83.68,149.14l-127.67 61.97c-70.23,81 -292.59,139.77 -443.09,150.7l-142.24 -1.6c-107.06,-14.35 -131.81,6.65 -239.91,-27.89l-99.87 -33.57c-36.74,-11.75 -76.15,-8.88 -114.26,-16.02 -156.69,-29.35 -421.14,-167.99 -531.39,-266.58 -52.23,-46.72 -72.52,-79.26 -146.51,-116.13 -88.76,-44.23 -142.59,-119.92 -211.37,-183.38 -27.4,-25.27 -60.17,-38.19 -102.9,-28.95 -20.29,23.55 54.83,123.19 71.83,147.52 52.32,74.89 56.87,71.01 126.21,128.01l-415.26 32.54c-130.75,19.44 -306.15,23.45 -435.11,14.58 -48.74,-3.34 -90.53,-12.81 -140.19,-13.76 -61.4,-1.16 -75.66,15.72 -143.37,6.44 -201.95,-27.69 -582.98,5.7 -816.76,-43.43 -84,-17.65 -186.57,-16.56 -276.22,-30.56 -130.48,-20.36 -637.79,-104.82 -756.6,-138.33 -118.47,-33.39 -150.83,-31.95 -215.42,-90.66 -67.85,-61.68 -76,-47.4 -161.18,-137.01 -29.02,-30.5 -55.35,-46.43 -78.38,-70.74 -23.91,-25.23 -42.97,-63.58 -68.42,-89.43 -41.28,-41.95 -30.6,-28.03 -55.26,-93.04 -14.8,-39.01 -33.17,-62.28 -55.02,-94.41 -35.04,-51.53 -85.52,-143.19 -98.01,-206.59l-16.88 -39.65c-21.8,-83.21 -45.89,-256.81 -21.92,-340.73 16.45,-57.61 31.6,-121.74 49.55,-178.91 20.61,-65.65 41.52,-102 52.19,-175.61 26.05,-179.7 93.04,-379.34 130.24,-551.36 14.76,-68.3 18.82,-131.3 35,-195.25 76.11,-300.69 281.7,-666.15 448.9,-909.19 94.28,-137.03 117.5,-126.93 208.37,-247.38 34.92,-46.3 62.77,-60.48 104,-115.08 109.78,-145.31 111.89,-97.41 223.46,-232.58 127.6,-154.57 154.59,-133.44 245.15,-210.56 43.36,-36.92 72.72,-66.43 131.15,-96.39l303.26 -153.36 333.59 -122.34c131.97,-37.12 209.62,-73.99 358.52,-94.43 66.87,-9.18 128.14,-31.88 194.03,-37.39l840.67 -58.2c75.32,1.13 124.29,11.52 204.44,8.34 80.99,-3.21 129.67,20.75 198.69,23.12 86.79,2.95 126.1,1.21 207.71,20.61 65.8,15.64 134.65,12.57 198.24,29.01 33.63,8.71 49.2,20.46 85.54,27.61 35.04,6.89 64.74,9.06 101.02,14.11 64.73,9.02 100.94,41.49 178.87,51.37 200.5,25.43 221.09,71.87 344.41,99.82l322.53 133.4c23.37,11.33 51.12,27.79 74.29,40.45 100.51,54.88 171.33,79.62 231.31,110.01 60.66,30.74 67.65,63.34 134.98,93.6 155.15,69.71 130.62,78.74 202.61,138.69 42.22,35.15 127.03,73.17 182.98,150.35 56.1,77.42 157.51,106.21 227.21,227.99 29.84,52.15 80.05,69.86 115.7,112.68 39.93,47.93 58.92,69.16 93.31,134.48 35.34,67.12 60.76,68.86 93.69,133.86 28.1,55.46 64.29,81.13 97.72,130.86 32.75,48.69 42.79,100.61 77.13,150.91 18.64,27.29 27.79,30.31 45.52,67.7 42.31,89.25 88.97,155.12 119.11,223.63 54.53,123.98 131.01,237.6 152.63,302.02 68.72,204.78 31.19,134.89 132.17,323.57 32.72,61.11 44,98.21 93.44,135.19 38.09,28.51 101.56,69.39 158.37,68.03 -4.86,-79.19 -78.19,-133.57 -94.28,-228.42 -111.3,-127.66 -287.87,-452.76 -347,-608.5 -85.08,-224.06 -97.88,-164.63 -167.41,-314.71 -44.49,-96.01 -15.24,-63.74 -87.91,-148.77 -21.27,-24.89 -33.13,-43.09 -49.45,-73.27 -12.9,-23.84 -29.89,-56.77 -44.47,-78.26l-287.61 -369.82c-14.61,-16.41 -13.19,-18.22 -26.83,-34.53 -122.05,-145.97 -260.85,-225.71 -380.79,-346.77 -54.94,-55.46 -87.07,-52.87 -143.98,-92.68 -179.51,-125.59 -114.63,-81.16 -296.27,-185.85 -149.44,-86.12 -151.62,-92.03 -314.81,-158.55 -60.84,-24.8 -97.78,-50.34 -170.96,-74.49l-442.2 -153.86c-26.47,-8.3 -73.3,-9.61 -106.24,-16.48 -35.86,-7.48 -63.09,-17.28 -96.77,-25.96 -98.87,-25.49 -291.31,-54.3 -405.74,-76.38 -107.01,-20.64 -221.33,-21.59 -319.67,-24.74 -80.65,-2.58 -130.28,-21.79 -221.6,-21.7 -50.63,0.06 -64.52,6.9 -105,9.08 -38.22,2.06 -83.81,0.07 -122.8,-0.07 -90.42,-0.34 -148.93,16.94 -227.52,17.9 -37.96,0.47 -76.71,-1.16 -114.66,-0.69l-538.2 66.63 -183.31 53.37c-61.76,16.57 -129.25,28.85 -186.19,50.48l-187.88 57.57c-23.82,9.98 -43.97,27 -72.63,41.33l-248.57 119.58c-99,49.5 -305.17,158.04 -377.15,218.93l-208.2 159.96c-48.01,35.79 -79.58,74.27 -121.03,115.64 -50.92,50.84 -65.48,80.46 -132.2,113.25 -109.05,53.59 -181.49,131.05 -253.83,228.28l-195.56 286.56c-132.26,197.49 -99.62,208.36 -182.54,404.77 -37.42,88.6 -53.27,191.48 -82.83,285.34 -39.82,126.41 -70.54,244.75 -98.28,383.83l-75.05 406.14c-2.41,42.67 5.87,38.87 -10.59,86.53 -10.6,30.72 -24.22,59.55 -36.28,86.67 -24.06,54.09 -38.65,128.01 -60.17,185.27 -13.71,36.49 -28.23,92.43 -36.19,150.09l0 147.55c0.45,2.11 0.93,4.18 1.43,6.22 30.77,123.7 14.13,169.86 81.02,278.48l90.93 154.52c23.24,36.49 23.63,27.95 38.98,74.98 18.48,56.59 54.06,106.32 90.56,154.88 113.36,150.79 131.22,192.23 313.45,282.62l250.07 109.32c42.7,15.99 47.18,14.93 106.5,16.22 82.73,1.8 178.94,20.18 257.37,40.68l153.08 30.99c29.29,3.03 65.47,8.74 94.13,19.83 65.72,25.44 143.22,10.16 219.28,26.17 34.15,7.17 61.75,19.44 100.39,22.32 151.51,11.31 297.39,12.48 449.38,32.74 42.43,5.65 60.34,7.21 100.04,14.32 58.35,10.44 50.02,-2.36 107.72,-3.52 68.24,-1.36 161.26,17.62 227.92,18.8 49.07,0.86 56,-10.9 105.07,-10.04 44.67,0.79 60.4,10.2 114.11,9.91 77.07,-0.43 149.63,-13.1 227.38,-4.87 208.45,22.1 117.5,-18.29 310.98,0.7 69.56,6.84 200.98,-16.62 329.18,-4.93 42.34,3.86 125.05,34.18 216.97,15.01 121.41,-25.34 61.36,-27.03 169.29,37.03 194.79,115.62 228.45,176.46 495.61,231.95 34.93,7.26 65.22,8.45 99.12,14.83 33.41,6.28 63.89,20.68 98.48,24.29 42.48,4.44 78.95,4.32 100.66,7.03 5.07,0.63 9.84,1.36 14.36,2.14l298.12 0 6.57 0 230.69 0c53.62,-8.31 137.19,-34.64 182.51,-50.67 73.41,-25.97 82.5,-71.24 139.11,-106.34 46.13,-28.6 118.01,-45.91 159.54,-77.15 46.64,-35.07 41.71,-121 60.35,-185.08 36.38,-125.04 -3.38,-142.08 59.58,-159.16l643.38 -75.83c103.02,-17.53 73.88,4.01 201.44,-17.69 73.26,-12.46 145.29,-14.18 220.67,-24.78 77.06,-10.85 121.76,-30.94 206.46,-30.22 122.78,1.07 462.11,-96.41 592.95,-134.6 64.49,-18.81 104.67,-42.58 160.4,-76.28 108.22,-65.43 55.53,-24.28 190.03,-38.63 38.8,-4.14 46.59,8.98 80.76,23.04 28.6,11.77 60.37,17.61 91.88,30.87 60.44,25.42 102.14,55.43 167.95,77.49 34.4,11.53 54.92,17.54 83.35,30.61l178.74 66.69c107.16,38.1 136.39,60.38 260.89,98.5 121.36,37.17 219.54,103.34 337.32,144.81 113.3,39.91 150.35,61.43 250.31,-19.36 42.76,-34.57 139.24,-155.61 166.81,-201.34 42.45,-70.46 82.04,-167.51 114.84,-244.56 39.91,-93.71 39.03,-221.28 26.14,-320.75 -11.98,-92.42 -1.88,-134.54 -40.34,-205.11l-79.69 -156.99c-30.31,-49.54 -58.41,-105.67 -99.39,-146.04 -37.09,-36.53 -86.6,-80.73 -117.58,-119.1 -48.92,-60.63 -57.53,-75.79 -124.85,-120.6 -49.15,-32.71 -94.48,-64.94 -145.46,-91.21 -57.94,-29.88 -105.48,-57.22 -167.7,-77.73 -130.57,-43.05 -209.75,-120.53 -358.28,-123.84 8.44,-31.62 16.01,-27.53 37.05,-50.6 54.05,-59.24 233.67,-311.77 255.54,-375.59 28.58,-83.37 77.36,-162.96 113.21,-246.19 39.89,-92.63 47.92,-196.45 61.3,-298.11 9.35,-71.12 9.13,-84.65 -12.35,-150.45 -15.66,-47.97 -26.83,-88.14 -46.67,-137.42 -55.5,-137.89 7.29,-182.86 -108.78,-338.28 -33.22,-44.48 -51.84,-53.26 -86.95,-88.35 -19.2,-19.18 -23.04,-31.06 -43.6,-52.84l-87.49 -87.83c-98.21,-97.05 -312.21,-102.18 -420.43,-47.51 -77.22,39 -153.4,82.01 -215.4,143.99 -106.2,106.12 -139.31,199.3 -213.14,321.58 -32.12,53.19 -63.89,134.41 -72.59,199.15 -20.37,151.81 -80.32,346.48 -147.17,483.96 -21.11,43.41 -39.66,77.13 -53.71,121.62 -15.36,48.71 -25.85,98.76 -36.14,147.94 -14.69,70.18 -99.08,219.25 -71.01,280.27z"/>
   <path style="fill:#989DA6" d="M6012.86 4445.91c51.23,50.23 51.04,146.32 83.77,208.73 50.43,-8.19 107.63,-5.78 160.86,-12.17 48.65,-5.84 91.28,-17.96 140.23,-25.65 56.9,-8.95 108.94,-1.65 164.43,-11.26l439.12 -56.15c67.82,5.44 221.21,-23.96 300.82,-34.14 55.6,-7.12 104.24,-9.38 154.8,-18.51 50.23,-9.08 93.73,-20.97 143.51,-26.92 56.86,-6.8 464.48,-122.6 538.82,-145.25l251.96 -86.75c-7.21,-33.52 -16.43,-53.13 -39.87,-75.59 -132.99,-37.27 -444.87,27.86 -579.48,58.75 -184.57,42.35 -367.86,78.78 -555.97,110.24 -96.84,16.2 -195.67,28.56 -293.32,41.18 -101.52,13.13 -217.54,15.5 -303.77,28.04 -300.53,43.73 -201.11,12.42 -453.22,11.25l-117.57 14.14c-2.96,1.05 -11.61,4.63 -14.36,6.03 -19.62,9.99 -7.59,1.7 -20.76,14.03z"/>
   <path style="fill:#989DA6" d="M8569.11 1326.19c-8.08,53.47 16.52,123.12 -2.41,289.41 -20.03,175.94 -15.42,388.66 -73.22,557.45 -17.89,52.22 -53.23,218.68 -31.11,268.23 44.13,-20.2 118.21,-173.34 130.6,-221.54 23.65,-91.98 41.87,-203.14 58.59,-300.54 25.08,-146.12 66.42,-534.17 39.51,-673.82 -40.3,16.68 -99.44,53.07 -121.96,80.81z"/>
   <path style="fill:#989DA6" d="M9241.99 1544.23c-11.09,-31.79 -72.99,-97.8 -101.46,-138.6 -20.59,14.38 -21.6,24.28 -25.82,55.1 -9.79,71.69 -67.69,251.39 -92.02,321.31 -14.09,40.52 -37.25,74.87 -54.61,112.07 -19.16,41.08 -40.5,123.61 -94.85,238.04 -17.34,36.5 -104.99,212.92 -77.27,237.72 90.2,32.76 225.67,-262.73 269.35,-352.44 53.2,-109.3 183.13,-371.97 176.68,-473.2z"/>
   <path style="fill:#989DA6" d="M9871.55 4578.89c26.24,-19.85 45.3,-54.2 48.7,-84.05 -17.56,-54.09 -237.55,-160.1 -297.28,-200.04 -39.76,-26.57 -54.97,-52.5 -103.79,-71.69 -200.47,-78.82 -165.85,-135.94 -502.31,-176.74 45.96,116.09 318.79,188.56 420.25,276.31 58.06,50.22 102.97,52.9 166.95,96.31 21.12,14.33 29.3,26.21 47.44,40.05 28.77,21.97 193.06,122.31 220.04,119.85z"/>
   <path style="fill:#0D0E11" d="M1309.51 3874.98c32.95,17.69 23.8,19.2 52.1,46.66 17.23,16.73 36.37,27.93 59.45,46.09 104.61,82.32 451.94,101.55 536.87,14.36 22.68,-23.32 24.72,-37.82 -1.44,-49.71 -50.05,-22.74 -109.12,21.55 -149.78,32.04 -57.16,14.75 -136.04,6.27 -186.17,-11.42 -116.72,-41.24 -35.49,4.38 -145.69,-65.38 -45.56,-28.85 -84.14,-45.26 -116.32,-85.47 -54.06,-67.57 -72.07,-19.42 -124.99,25.4 -54.89,46.51 -192.74,126.96 -297.19,106.02 -31.81,-6.37 -42.67,-28.17 -65.93,-26.25 -80.13,6.64 52.68,185.21 309.94,51.88 56.83,-29.45 83.99,-56.62 129.15,-84.22z"/>
   <path style="fill:#989DA6" d="M9983.72 3933.89c4.52,-43.63 -21.33,-112.26 -50.64,-135.25 -48.37,-19.66 -132.03,-22.02 -184.97,-32.26 -56.3,-10.89 -124.03,-36.19 -172.12,-41.35 -43.68,-4.68 -154.35,-5.52 -201.98,-5.13 -71.33,0.59 -114.66,31.33 -145.29,70.02 41.36,49.68 92.8,44.86 171.74,50.84 64.99,4.92 134.9,29.96 194.52,43.68 109.26,25.13 193.8,7.71 384.3,77.96l4.44 -28.51z"/>
   <path style="fill:#0D0E11" d="M702.55 3138.93c34.54,-64.4 69.06,-152.02 35.94,-231.42 -15.58,-17.66 -20.59,-31.89 -52.91,-36.65 -130.65,-19.27 -239.77,206.79 -215.72,330.29 23.03,118.33 182.58,31.24 232.69,-62.22z"/>
   <path style="fill:#0D0E11" d="M2363.19 3003.23c-61.83,106.21 14.56,412.02 167.76,362.75 94.44,-54.89 97.25,-168.84 51.02,-260.97 -19.83,-41.46 -49.93,-69.1 -81,-94.28 -52.33,-42.41 -70.09,-28.44 -137.78,-7.5z"/>
   <path style="fill:#989DA6" d="M5781.35 5098.47l127.67 -61.97c-4.15,-27.42 11.51,-9.85 -25.5,-35.44 -49.18,-33.99 -47.96,-24.27 -113.34,-78.97 -54.49,-45.6 -68.13,-71.6 -139.43,-115.19 -131.17,-80.2 -212.65,-188.28 -314.38,-201.23 2.08,79.86 139.11,180.19 214.24,257.81l116.96 119.65c39.54,41.05 97.65,67.31 133.78,115.34z"/>
   <path style="fill:#989DA6" d="M5196.02 5247.58l142.24 1.59 -136.81 -153.31c-48.9,-57.75 -77.32,-104.06 -132.92,-147.21 -45.4,-35.23 -105.89,-96.43 -143.63,-145.61 -25.18,-32.82 -90.71,-127.73 -158.2,-116.01 -8.44,80.66 134.74,206.79 199.43,293.72 77.21,103.77 143.91,169.63 229.89,266.83z"/>
   <path style="fill:#0D0E11" d="M1325.09 3670.02c13.75,-1.21 160.6,-96.74 122.86,-152 -42.94,-29.47 -137.15,-25.68 -203,-25.71 -143.27,14.73 77.24,177.96 80.14,177.71z"/>
  </g>
 </g>
</svg>