<svg xmlns="http://www.w3.org/2000/svg"  width="100.915mm" height="52.929mm" version="1.1" style="shape-rendering:geometricPrecision; text-rendering:geometricPrecision; image-rendering:optimizeQuality; fill-rule:evenodd; clip-rule:evenodd"
viewBox="0 0 10091.5 5292.9"
 >
 <defs>
 </defs>
 <g id="Слой_x0020_1">
  <metadata id="CorelCorpID_0Corel-Layer"/>
  <g id="_2331375444656">
   <path style="fill:#64676D" d="M181.06 3858.63c-4.12,-30.1 -0.86,-32.7 5.94,-53.64 2.94,-9.04 8.53,-25.95 13.49,-39.86 11.52,-32.34 21.75,-41.83 38.19,-67.11 89.65,-137.85 117.24,-219.85 173.35,-370.31 29.37,-78.75 12.25,-57.56 35.62,-62.75 -14.59,-19.83 -94.48,-48.1 -64.34,-149.83 17.47,-58.96 64.23,-73.58 105.1,-105.65 35.49,-27.85 76.09,-70.24 108.18,-102.51 33.48,-33.67 53.79,-92.69 122.77,-75.25 24.94,-65.1 315.94,-139.12 378.45,-151.58 250.33,-49.9 695.47,-81.36 932.29,37.23 32.07,16.06 52.01,27.79 82.59,49.01 99.1,68.76 163.87,172.88 199.08,198.07 70.63,-10.29 63.1,40.12 96.92,93.37l85.48 98.95c36.91,34.17 77.14,26.99 76.79,105.87 -0.31,68.8 -38.85,74.15 -76.07,105.49 26.2,17.32 15.5,13.57 23.02,54.4l36.19 183.11c25.63,129.23 110.1,307.16 201.4,394.68 83.88,80.4 102.28,80.9 181.24,107.97 102.7,35.2 491.93,223.64 599.71,294.52 57.7,37.94 119.81,79.07 176.14,114.36l-13.53 20.74c118.71,-25.6 157.97,134.57 314.73,212.62 73.94,36.82 94.41,69.48 146.57,116.18 46.2,41.36 96.49,69.8 155.65,107.34 285.12,180.94 414.05,150.52 490.23,175.4 241.5,78.86 97.23,34.31 337.59,60.52 -53.85,-70.37 -156.96,-169.38 -231.35,-270.97 -58.48,-79.87 -72.74,-79.26 -113.73,-131.9 -26.91,-34.54 -87.8,-102.03 -82.06,-156.97 92.35,-16.02 168.93,158.52 301.92,261.79l269.15 292.12 -130.86 3.54 46.96 9.74c149.64,4.94 434.53,-58.19 527.92,-155.46 -36,-48.18 -94.27,-74.41 -133.84,-115.49 -23.48,-24.38 -32.76,-41.1 -59.18,-63.93 -23.72,-20.48 -34.81,-31.91 -57.8,-55.79 -75.45,-78.36 -212.27,-177.58 -214.36,-257.91 101.79,12.96 183.29,121.08 314.52,201.32 88.78,54.28 117.72,109.9 214.45,171.13 81.51,51.6 59.7,28.35 63.13,58.35 58.65,-23.62 66.75,-78.75 84.27,-148.95 20.38,-81.59 -34.59,-280.51 -67.88,-357.08 -15.13,-34.81 -21.05,-43.87 -37.59,-76.62 -37.72,-74.64 44.56,-99.04 90.26,-63.42 17.71,13.81 25.52,39.32 35.77,54.86l152.61 -33.63c252.22,1.17 152.76,32.5 453.42,-11.25 86.26,-12.55 202.34,-14.92 303.89,-28.05 97.7,-12.63 196.57,-25 293.44,-41.2 188.2,-31.48 371.57,-67.92 556.21,-110.29 134.67,-30.9 446.68,-96.06 579.74,-58.78 24.63,23.62 32.68,42.82 40.68,78.33l-21.95 28.41c-1.36,1.21 -4.58,7.12 -5.57,5.44 -1.02,-1.73 -3.77,3.77 -5.71,5.59l25.89 2.9 20.75 -15.61c15.76,-10.35 1.02,-6.25 23.85,-12.05 45.06,-11.45 111.78,19.31 165.53,33.04 69.67,17.79 124.2,50.19 181.75,81.57 74.08,40.41 123.51,39.91 196.01,75.92 60.66,30.13 122.27,55.82 193.14,69.29 64.56,12.27 137.2,44.25 203.86,69.2 100.97,37.8 290.63,175.94 372.99,135.79 47.99,-23.39 104.03,-91.88 129.62,-141 -31.24,2.86 -77.07,-37.59 -110.52,-53.59 -107.16,-51.3 -109.1,-73.84 -157.04,-106.37 -64.01,-43.44 -108.93,-46.11 -167.02,-96.35 -101.49,-87.78 -374.47,-160.3 -420.43,-276.43 85.68,10.39 200.51,32.76 275.13,62.21 104.06,41.06 91.37,61.12 227.4,114.6 48.84,19.2 64.06,45.14 103.83,71.72 60.53,40.47 278.22,145.29 297.42,200.08 33.8,-24.45 78.47,-198.54 91.26,-250.75 27.69,-112.94 12.47,-134.94 -4.95,-228.47l-11.52 -50.71c-0.63,-2.08 -2.36,-3.56 -2.85,-7.85 -0.48,-4.36 -1.76,-5.39 -3.01,-7.92 -12.4,16.59 -1.18,14.45 -41.61,5.07 -14.58,-3.38 -35.79,-11.3 -48.09,-14.86 -170.8,-49.43 -194.74,-30.84 -297.54,-53.49 -60.17,-13.26 -130,-38.84 -193,-44.68 -81.78,-7.58 -136.68,1.16 -180.53,-51.51 30.64,-38.71 74,-69.46 145.35,-70.05 279.11,-2.29 167.87,6.59 374.27,46.5 53.07,10.26 136.54,12.59 185.11,32.28 -29.57,-111.01 -134.5,-234.76 -198.24,-290.97 -23.56,-20.77 -44.29,-31.02 -71.14,-51.55 -56.82,-43.44 -63.58,-90.16 -198.38,-152.8 -212.1,-98.55 -296.78,-148.34 -518.74,-192.51 -66.13,-13.16 -112.05,-51.62 -109.41,-127.69 13.27,-22.26 44.41,-53.17 64.82,-68.36 45.97,-34.23 148.63,-160.61 177.16,-208.74 42.45,-71.59 148.51,-265.19 169.74,-339.12 49.42,-172.09 172.22,-266.02 35.04,-608.68 -19.15,-47.83 -25.66,-192.08 -42.69,-214.57 6.35,87.03 -46.93,181.4 -75.66,249.03l-100.71 223.98c-43.69,89.75 -179.22,385.38 -269.46,352.6 -27.73,-24.82 59.96,-201.31 77.3,-237.82 54.37,-114.48 75.72,-197.06 94.9,-238.15 17.36,-37.22 40.53,-71.58 54.63,-112.12l80.35 -252.97c15.17,-59.8 4.64,-100.16 37.14,-123.4 -33.88,-56.14 -130.51,-119.73 -186.5,-158.48 -68.74,-47.58 -202.04,-49.95 -262.62,-2 36.69,196.37 -40.93,751.71 -98.27,974.75 -12.4,48.21 -86.5,201.42 -130.66,221.63 -22.13,-49.57 13.23,-216.12 31.12,-268.36 39.08,-114.11 87.37,-586.97 82.76,-706.63 -1.89,-49.08 -14.86,-89.93 -6.97,-140.53 -63.16,34.04 -79.92,104.58 -125.45,166.08 -162.57,219.63 -97.89,191 -171.08,389.99 -27.01,73.44 -36.89,148.42 -60.63,220.56 -22.77,69.18 -56.82,135 -75.27,212.27 -21.69,90.83 -49.75,124.35 -78.36,204.04 -12.83,35.73 -18.17,73.02 -29.13,110.76 -10.29,35.44 -25.24,64.31 -38.28,102.36 -22.2,64.81 -52.31,183.04 -133.61,93.81 -13.32,15.19 -12.31,26.89 -38.66,37.73l11.45 16.19c0.99,1.48 2.6,3.59 3.58,5.15l41.97 89.13c23.3,39.52 46.3,62.16 49.49,115.58 -56.67,1.52 -120.41,-39.61 -158.43,-68.01 -50.01,-37.37 -145.85,-216.49 -169.75,-286.67 -20.39,-59.87 -35.97,-112.73 -55.94,-172.3 -21.63,-64.52 -98.05,-177.75 -152.7,-302.13l-164.74 -291.43c-34.36,-50.4 -44.44,-102.49 -77.11,-151.02 -33.5,-49.76 -69.69,-75.42 -97.77,-130.91 -32.91,-65.05 -58.47,-66.73 -93.73,-133.89 -92.33,-175.84 -169.42,-177.93 -209.11,-247.27 -69.79,-121.91 -171.08,-150.54 -227.29,-228.11 -55.79,-77 -140.53,-115.03 -183.07,-150.41 -72.31,-60.14 -47.05,-68.7 -202.69,-138.74 -67.45,-30.36 -74.44,-62.89 -135.04,-93.63 -58.85,-29.86 -93.28,-30.67 -156.71,-70.9l-471.7 -213.07c-64.08,-14.53 -100.47,-36.47 -161.67,-57.64 -74.96,-25.94 -97.72,-31.49 -182.87,-42.25 -77.23,-9.77 -114.06,-42.87 -178.98,-51.39 -159.21,-20.89 -80.26,-14.17 -186.62,-41.72 -72.49,-18.79 -324.92,-46.85 -406.1,-49.65 -68.98,-2.37 -117.85,-26.39 -198.73,-23.12 -80.19,3.25 -129.24,-7.25 -204.58,-8.34l-841.02 58.21c-66.01,5.55 -125.56,27.62 -193.93,37.29 -142.27,20.13 -393.07,98.88 -523.97,158.32 -63.78,28.97 -107.18,34.93 -168.61,58.66 -67.25,25.99 -222.01,111.76 -303.42,153.39 -58.23,29.78 -88.05,59.69 -131.19,96.45 -86.84,74.01 -89.21,37.48 -219.85,183.54 -91.05,101.79 -30.68,47.19 -140.24,140.24l-212.74 234.7c-91.04,120.68 -114.07,110.21 -208.47,247.46 -121.87,177.18 -229.32,378.93 -330.54,580.61 -32.32,64.4 -103.01,256.08 -119.25,328.32 -14.27,63.46 -19.76,128.5 -34.31,195.99 -37.17,172.41 -103.99,370.77 -130.3,551.6 -10.73,73.73 -31.61,110.01 -52.22,175.65 -17.95,57.2 -33.07,121.33 -49.57,179.02 -16.45,57.51 -19.47,144.85 -2.01,199.87 14.65,46.2 8.17,139.25 41.16,180.34z"/>
   <path style="fill:#989DA6" d="M719.36 2831.72c65.21,68.98 -17.91,206.44 -55.57,274.15 -24.57,44.16 -42.76,76.44 -81.72,110.76 -49.35,43.47 -61.03,45.31 -134.42,48.33 -23.37,5.19 -6.25,-16 -35.62,62.75 -56.11,150.46 -83.7,232.46 -173.35,370.31 -16.44,25.28 -26.67,34.77 -38.19,67.11 -4.96,13.91 -10.55,30.82 -13.49,39.86 -6.8,20.94 -10.06,23.54 -5.94,53.64 20.27,115.7 124.49,230.72 150.31,294.97 34.42,85.7 40.57,82.49 118.11,179.59l153.79 144.58c172.21,125.08 81.56,102.23 288.98,157.88 160.42,43.04 166.4,29.14 248.25,49.07 377.83,92.02 672.47,107.18 1049.62,150.71 99.38,11.47 428.58,-1.6 572.97,18.14 66.69,9.11 76.73,-6.38 134.54,-6.61 49.71,-0.21 92.31,9.17 140.26,13.22 228.73,19.3 365.38,-14.68 579.14,-14.71 49.4,0 99.45,-6.61 148.87,-9.64l114.22 -13.93c17.06,-5.98 13.91,-6.06 17.4,-8.14 -66.83,-54.87 -70.3,-48.95 -122.67,-122.91 -16.9,-23.86 -95.25,-128.83 -75.79,-152.94l13.53 -20.74c-56.33,-35.29 -118.44,-76.42 -176.14,-114.36 -107.78,-70.88 -497.01,-259.32 -599.71,-294.52 -78.96,-27.07 -97.36,-27.57 -181.24,-107.97 -91.3,-87.52 -175.77,-265.45 -201.4,-394.68l-36.19 -183.11c-7.52,-40.83 3.18,-37.08 -23.02,-54.4 -56.95,5.33 -84.27,-6.12 -130.57,-29.24 -49.43,-24.69 -52.31,-37.88 -73.46,-92.65 -33.03,-85.52 -18.98,-210.12 20.91,-281.79 -35.21,-25.19 -99.98,-129.31 -199.08,-198.07 -30.58,-21.22 -50.52,-32.95 -82.59,-49.01 -236.82,-118.59 -681.96,-87.13 -932.29,-37.23 -62.51,12.46 -353.51,86.48 -378.45,151.58z"/>
   <path style="fill:#060606" d="M8310.29 4242.9c1.94,-1.82 4.69,-7.32 5.71,-5.59 0.99,1.68 4.21,-4.23 5.57,-5.44l21.95 -28.41c-50.48,25.69 -190.7,65.13 -252.88,84.08 -74.22,22.63 -482.35,138.58 -539.03,145.32 -51.66,6.14 -97.77,18.46 -149.97,28.08 -52.08,9.6 -95.63,10.6 -148.48,17.36 -79.69,10.19 -233.02,39.6 -300.94,34.17 -62.09,-4.97 -207.3,30.17 -293.21,36.74 -59.74,4.56 -96.87,11.61 -153.61,20.74 -54.97,8.84 -102,1.3 -156.99,9.94 -51.35,8.08 -97.16,21.14 -147.5,26.48 -49.55,5.25 -109.3,3.91 -153.7,11.37 -33.92,-64.57 -31.07,-153.86 -83.68,-209.41 -10.25,-15.54 -18.06,-41.05 -35.77,-54.86 -45.7,-35.62 -127.98,-11.22 -90.26,63.42 16.54,32.75 22.46,41.81 37.59,76.62 33.29,76.57 88.26,275.49 67.88,357.08 -17.52,70.2 -25.62,125.33 -84.27,148.95l-126.92 62.32c-93.39,97.27 -378.28,160.4 -527.92,155.46l-46.96 -9.74 -13.07 2.39c-240.36,-26.21 -96.09,18.34 -337.59,-60.52 -76.18,-24.88 -205.11,5.54 -490.23,-175.4 -59.16,-37.54 -109.45,-65.98 -155.65,-107.34 -52.16,-46.7 -72.63,-79.36 -146.57,-116.18 -156.76,-78.05 -196.02,-238.22 -314.73,-212.62 -19.46,24.11 58.89,129.08 75.79,152.94 52.37,73.96 55.84,68.04 122.67,122.91 -3.49,2.08 -0.34,2.16 -17.4,8.14l-114.22 13.93c-49.42,3.03 -99.47,9.64 -148.87,9.64 -213.76,0.03 -350.41,34.01 -579.14,14.71 -47.95,-4.05 -90.55,-13.43 -140.26,-13.22 -57.81,0.23 -67.85,15.72 -134.54,6.61 -144.39,-19.74 -473.59,-6.67 -572.97,-18.14 -377.15,-43.53 -671.79,-58.69 -1049.62,-150.71 -81.85,-19.93 -87.83,-6.03 -248.25,-49.07 -207.42,-55.65 -116.77,-32.8 -288.98,-157.88l-153.79 -144.58c-77.54,-97.1 -83.69,-93.89 -118.11,-179.59 -25.82,-64.25 -130.04,-179.27 -150.31,-294.97 -32.99,-41.09 -26.51,-134.14 -41.16,-180.34 -17.46,-55.02 -14.44,-142.36 2.01,-199.87 16.5,-57.69 31.62,-121.82 49.57,-179.02 20.61,-65.64 41.49,-101.92 52.22,-175.65 26.31,-180.83 93.13,-379.19 130.3,-551.6 14.55,-67.49 20.04,-132.53 34.31,-195.99 16.24,-72.24 86.93,-263.92 119.25,-328.32 101.22,-201.68 208.67,-403.43 330.54,-580.61 94.4,-137.25 117.43,-126.78 208.47,-247.46l212.74 -234.7c109.56,-93.05 49.19,-38.45 140.24,-140.24 130.64,-146.06 133.01,-109.53 219.85,-183.54 43.14,-36.76 72.96,-66.67 131.19,-96.45 81.41,-41.63 236.17,-127.4 303.42,-153.39 61.43,-23.73 104.83,-29.69 168.61,-58.66 130.9,-59.44 381.7,-138.19 523.97,-158.32 68.37,-9.67 127.92,-31.74 193.93,-37.29l841.02 -58.21c75.34,1.09 124.39,11.59 204.58,8.34 80.88,-3.27 129.75,20.75 198.73,23.12 81.18,2.8 333.61,30.86 406.1,49.65 106.36,27.55 27.41,20.83 186.62,41.72 64.92,8.52 101.75,41.62 178.98,51.39 85.15,10.76 107.91,16.31 182.87,42.25 61.2,21.17 97.59,43.11 161.67,57.64l471.7 213.07c63.43,40.23 97.86,41.04 156.71,70.9 60.6,30.74 67.59,63.27 135.04,93.63 155.64,70.04 130.38,78.6 202.69,138.74 42.54,35.38 127.28,73.41 183.07,150.41 56.21,77.57 157.5,106.2 227.29,228.11 39.69,69.34 116.78,71.43 209.11,247.27 35.26,67.16 60.82,68.84 93.73,133.89 28.08,55.49 64.27,81.15 97.77,130.91 32.67,48.53 42.75,100.62 77.11,151.02l164.74 291.43c54.65,124.38 131.07,237.61 152.7,302.13 19.97,59.57 35.55,112.43 55.94,172.3 23.9,70.18 119.74,249.3 169.75,286.67 38.02,28.4 101.76,69.53 158.43,68.01 -3.19,-53.42 -26.19,-76.06 -49.49,-115.58l-41.97 -89.13c-0.98,-1.56 -2.59,-3.67 -3.58,-5.15l-11.45 -16.19 -134.62 -214.89c-45.84,-71.44 -81.8,-147.94 -126.28,-225.13 -41.57,-72.14 -67.73,-160.66 -104.58,-246.12 -42.28,-98.08 -89.01,-134.02 -132.67,-226.1 -21.14,-44.58 -26.84,-81.52 -56.79,-118.89 -114.5,-142.9 -82.92,-124.31 -144.16,-206.81 -26.68,-35.93 -45.8,-57.95 -72.59,-102.79 -22.97,-38.43 -49.94,-66.73 -76.18,-99.33 -108.79,-135.21 -162.1,-206.46 -293.45,-329.02 -90.62,-84.55 -151.64,-122.22 -236.15,-202.42 -40.57,-38.5 -43.27,-40.21 -104.51,-70.64 -77.65,-38.59 -131.3,-100.54 -208.65,-142.63l-345.58 -188.62c-46.1,-19.31 -84.64,-29.73 -126.85,-48.47 -39.08,-17.35 -77.98,-42.05 -118.98,-57.14 -106.49,-39.18 -319.56,-95.92 -402.13,-132.61 -61.59,-27.37 -62.3,-29.72 -135.03,-40.3l-445.32 -90.32c-79.1,-18.1 -215.86,-41.8 -302.53,-45.23 -56.29,-2.23 -97.53,5.45 -157.42,-1.04 -198.22,-21.48 -306.67,-22.49 -517.16,-2.81 -108.2,10.11 -214.44,11.44 -328.49,22.53 -110.43,10.73 -200.5,27.34 -310.36,39.16 -162.22,17.45 -128.53,27.31 -284.42,66.03l-413.79 122.06c-38.91,18.88 -74.47,38.04 -116.93,57.73 -81.67,37.88 -160.77,76.02 -236.13,115.61 -69.94,36.75 -271.65,144.82 -330.17,195.94 -35.91,31.37 -62.87,55.54 -101.69,82.47 -35.76,24.81 -66.75,46.77 -102.24,72.92l-177.22 173.55c-38.92,45.29 -48.08,41.54 -110.19,74.54 -197.15,104.72 -354.93,418.88 -476.83,583.86 -62.49,84.56 -232.07,676.65 -262.41,797.18 -48.12,191.11 -57.66,257.13 -85.64,438.71 -9.01,58.43 -24.85,84.91 -29.87,148.21 -11.37,143.63 -36.09,128.2 -76.56,273.96 -12.38,44.61 -27.35,85.71 -45.69,131.01 -26.66,65.87 -13.55,93.58 -23.26,161.63 -13.09,91.73 13.58,160.32 36.31,289.57 7.3,41.45 36.89,84.6 57.89,115.7 27.98,41.43 40.09,68.55 64.99,110.16 51.45,85.98 19.56,17.64 59.1,115.42 16.46,40.73 42,84.88 63.4,112.65 52.98,68.73 100.79,152.23 160.35,199.52 83.66,66.42 353,212.66 477.44,231.23 35.96,5.37 48.84,-2.64 84.53,2.4 134.53,19.01 269.76,56.2 371.6,69.07 61.95,7.83 100.34,25.74 151.81,33.47 47.35,7.11 117.29,1.84 163.43,11.9 61.72,13.45 71.61,23.75 146.29,23.34 108.88,-0.61 225.77,14.14 333.96,23.41 55.98,4.8 100.38,12.94 150.76,20.31 68.35,9.99 108.91,0.56 173.42,3.84 57.33,2.92 111.14,10.98 166.46,13.32 131.62,5.57 406.87,-11.7 527.74,2.78 59.94,7.19 103.82,-7.68 165.08,-9.82l432.82 1.49c33.4,9.58 14.7,16.99 66.58,18.9 222.39,8.17 154.05,-67 285.74,22.25 162.13,109.89 248.83,179.95 469.94,230.57l446.17 77.28c41.27,0.53 119.55,-11.31 166.65,-14.03 182.33,-10.53 212.75,35.36 454.15,-53.45 68.89,-25.34 71,-37.62 107.06,-78.34 54.79,-61.88 187.05,-70.95 216.93,-133.36 21.27,-44.4 54.07,-238.25 56.54,-303.25 184.13,-61.32 147.28,-13.21 293.25,-39.03 288,-50.94 606.18,-55.96 912.56,-114.2 48.13,-9.15 101.07,-10.37 151.88,-13.08 65.45,-3.5 348.01,-72 424.51,-95.91 143.31,-44.77 121.25,-16.91 249.56,-91.43 61.64,-35.8 172.53,-87.97 204.53,-131.09z"/>
   <path style="fill:#060606" d="M7809.04 2787.79c81.3,89.23 111.41,-29 133.61,-93.81 13.04,-38.05 27.99,-66.92 38.28,-102.36 10.96,-37.74 16.3,-75.03 29.13,-110.76 28.61,-79.69 56.67,-113.21 78.36,-204.04 18.45,-77.27 52.5,-143.09 75.27,-212.27 23.74,-72.14 33.62,-147.12 60.63,-220.56 73.19,-198.99 8.51,-170.36 171.08,-389.99 45.53,-61.5 62.29,-132.04 125.45,-166.08 22.44,-28.27 81.13,-64.1 122.02,-80.86 60.58,-47.95 193.88,-45.58 262.62,2 55.99,38.75 152.62,102.34 186.5,158.48 26.61,35.66 92.76,111.16 101.51,138.85 17.03,22.49 23.54,166.74 42.69,214.57 137.18,342.66 14.38,436.59 -35.04,608.68 -21.23,73.93 -127.29,267.53 -169.74,339.12 -28.53,48.13 -131.19,174.51 -177.16,208.74 -20.41,15.19 -51.55,46.1 -64.82,68.36 -2.64,76.07 43.28,114.53 109.41,127.69 221.96,44.17 306.64,93.96 518.74,192.51 134.8,62.64 141.56,109.36 198.38,152.8 26.85,20.53 47.58,30.78 71.14,51.55 63.74,56.21 168.67,179.96 198.24,290.97 30.88,24.23 56.83,101.86 56.04,150.74 1.25,2.53 2.53,3.56 3.01,7.92 0.49,4.29 2.22,5.77 2.85,7.85l11.52 50.71c17.42,93.53 32.64,115.53 4.95,228.47 -12.79,52.21 -57.46,226.3 -91.26,250.75 -3.41,29.81 -22.45,64.31 -48.77,84.13 -25.59,49.12 -81.63,117.61 -129.62,141 -82.36,40.15 -272.02,-97.99 -372.99,-135.79 -66.66,-24.95 -139.3,-56.93 -203.86,-69.2 -70.87,-13.47 -132.48,-39.16 -193.14,-69.29 -72.5,-36.01 -121.93,-35.51 -196.01,-75.92 -57.55,-31.38 -112.08,-63.78 -181.75,-81.57 -53.75,-13.73 -120.47,-44.49 -165.53,-33.04 -22.83,5.8 -8.09,1.7 -23.85,12.05l-20.75 15.61c-16.55,88.36 128.72,108.62 193.39,136.24 40.07,17.11 74.12,37.16 114.49,53.09l361.3 137.99c85.51,38.39 158.44,54.96 244.63,88.86 43.04,16.92 71.56,35.62 111.86,54.4 41.2,19.21 75.28,24.8 119.8,47.21 67.04,33.76 174.35,89.66 255.09,40.15 36.97,-22.67 138.58,-131.79 166.33,-167.01 87.23,-110.73 182.2,-333.67 189.87,-480.64 3.31,-63.49 -7.4,-261.6 -25.04,-313.09 -13.15,-38.38 -39.3,-73.77 -56.8,-109.05 -20.07,-40.47 -34.16,-74.24 -55.73,-110.64 -103.05,-173.82 -26.49,-56.63 -146.61,-186.8 -73.53,-79.68 -96.78,-122.37 -165.31,-167.84 -71.82,-47.66 -133.03,-84.5 -207.79,-125.71 -84.93,-46.83 -154.15,-55.3 -236.09,-96.73 -92.43,-46.72 -55.54,-48.94 -183.47,-71.41 -24.78,-4.35 -49.01,-5.65 -66.83,-21.52 14.74,-16.47 23.91,-22.66 42.73,-43.07 15.49,-16.8 24.26,-31.48 38.93,-49.04 44.82,-53.65 198.11,-273.82 214.81,-319.9 85.67,-236.51 130.15,-184.61 174.84,-534.98 14.67,-115 -14.53,-191.15 -55.93,-291.17 -41.81,-101.04 -10.99,-193.26 -69.31,-290.76 -51.48,-86.09 -107.84,-130.68 -166.9,-192.81 -62.52,-65.78 -97.15,-121.08 -206.94,-152.11 -215.77,-60.99 -365.71,21.53 -516.89,155.64 -85.4,75.76 -220.23,310.66 -266.84,452.59 -13.64,41.54 -25.78,151.99 -66.36,285.21 -57.47,188.65 -108.29,265.27 -149.6,384.19 -15.91,45.8 -25.78,101.53 -37.73,147.33 -18.11,69.39 -87.32,213.86 -75.04,283.37z"/>
   <path style="fill:#989DA6" d="M5963.53 4408.33c52.61,55.55 49.76,144.84 83.68,209.41 44.4,-7.46 104.15,-6.12 153.7,-11.37 50.34,-5.34 96.15,-18.4 147.5,-26.48 54.99,-8.64 102.02,-1.1 156.99,-9.94 56.74,-9.13 93.87,-16.18 153.61,-20.74 85.91,-6.57 231.12,-41.71 293.21,-36.74 67.92,5.43 221.25,-23.98 300.94,-34.17 52.85,-6.76 96.4,-7.76 148.48,-17.36 52.2,-9.62 98.31,-21.94 149.97,-28.08 56.68,-6.74 464.81,-122.69 539.03,-145.32 62.18,-18.95 202.4,-58.39 252.88,-84.08 -8,-35.51 -16.05,-54.71 -40.68,-78.33 -133.06,-37.28 -445.07,27.88 -579.74,58.78 -184.64,42.37 -368.01,78.81 -556.21,110.29 -96.87,16.2 -195.74,28.57 -293.44,41.2 -101.55,13.13 -217.63,15.5 -303.89,28.05 -300.66,43.75 -201.2,12.42 -453.42,11.25l-152.61 33.63z"/>
   <path style="fill:#989DA6" d="M8520.85 1287.92c-7.89,50.6 5.08,91.45 6.97,140.53 4.61,119.66 -43.68,592.52 -82.76,706.63 -17.89,52.24 -53.25,218.79 -31.12,268.36 44.16,-20.21 118.26,-173.42 130.66,-221.63 57.34,-223.04 134.96,-778.38 98.27,-974.75 -40.89,16.76 -99.58,52.59 -122.02,80.86z"/>
   <path style="fill:#989DA6" d="M9193.5 1506.39c-8.75,-27.69 -74.9,-103.19 -101.51,-138.85 -32.5,23.24 -21.97,63.6 -37.14,123.4l-80.35 252.97c-14.1,40.54 -37.27,74.9 -54.63,112.12 -19.18,41.09 -40.53,123.67 -94.9,238.15 -17.34,36.51 -105.03,213 -77.3,237.82 90.24,32.78 225.77,-262.85 269.46,-352.6l100.71 -223.98c28.73,-67.63 82.01,-162 75.66,-249.03z"/>
   <path style="fill:#989DA6" d="M9823.68 4541.95c26.32,-19.82 45.36,-54.32 48.77,-84.13 -19.2,-54.79 -236.89,-159.61 -297.42,-200.08 -39.77,-26.58 -54.99,-52.52 -103.83,-71.72 -136.03,-53.48 -123.34,-73.54 -227.4,-114.6 -74.62,-29.45 -189.45,-51.82 -275.13,-62.21 45.96,116.13 318.94,188.65 420.43,276.43 58.09,50.24 103.01,52.91 167.02,96.35 47.94,32.53 49.88,55.07 157.04,106.37 33.45,16 79.28,56.45 110.52,53.59z"/>
   <path style="fill:#989DA6" d="M9941.38 3912.12c0.79,-48.88 -25.16,-126.51 -56.04,-150.74 -48.57,-19.69 -132.04,-22.02 -185.11,-32.28 -206.4,-39.91 -95.16,-48.79 -374.27,-46.5 -71.35,0.59 -114.71,31.34 -145.35,70.05 43.85,52.67 98.75,43.93 180.53,51.51 63,5.84 132.83,31.42 193,44.68 102.8,22.65 126.74,4.06 297.54,53.49 12.3,3.56 33.51,11.48 48.09,14.86 40.43,9.38 29.21,11.52 41.61,-5.07z"/>
   <path style="fill:#060606" d="M447.65 3264.96c73.39,-3.02 85.07,-4.86 134.42,-48.33 38.96,-34.32 57.15,-66.6 81.72,-110.76 37.66,-67.71 120.78,-205.17 55.57,-274.15 -68.98,-17.44 -89.29,41.58 -122.77,75.25 -32.09,32.27 -72.69,74.66 -108.18,102.51 -40.87,32.07 -87.63,46.69 -105.1,105.65 -30.14,101.73 49.75,130 64.34,149.83z"/>
   <path style="fill:#060606" d="M2494.89 3368.13c37.22,-31.34 75.76,-36.69 76.07,-105.49 0.35,-78.88 -39.88,-71.7 -76.79,-105.87l-85.48 -98.95c-33.82,-53.25 -18.55,-131.52 -89.18,-121.23 -39.89,71.67 -61.68,224.13 -28.65,309.65 21.15,54.77 24.03,67.96 73.46,92.65 46.3,23.12 73.62,34.57 130.57,29.24z"/>
   <path style="fill:#989DA6" d="M5731.78 5061.86l126.92 -62.32c-3.43,-30 18.38,-6.75 -63.13,-58.35 -96.73,-61.23 -125.67,-116.85 -214.45,-171.13 -131.23,-80.24 -212.73,-188.36 -314.52,-201.32 2.09,80.33 138.91,179.55 214.36,257.91 22.99,23.88 34.08,35.31 57.8,55.79 26.42,22.83 35.7,39.55 59.18,63.93 39.57,41.08 97.84,67.31 133.84,115.49z"/>
   <path style="fill:#060606" d="M986.59 4119.04c12.84,9.78 -4.33,6.08 17.64,6.92 35.54,1.35 127.94,-126.88 175.06,-180.16l56.42 -66.85c0.96,-0.9 3.18,-2.84 4.79,-4.23 52.18,56.03 137.16,232.61 213.38,287.16 83.92,60.05 152.5,25.56 17.65,-149.45 -25.87,-33.57 -40.72,-32.38 -63.38,-67.93l-103.91 -150.75c-82.87,-138.3 -120.07,34.02 -120.14,34.14 -28.5,51.79 -115.15,181.39 -157.97,218.92 -17.99,15.76 -55.04,40.09 -39.54,72.23z"/>
   <path style="fill:#989DA6" d="M5143.83 5209.97l13.07 -2.39 130.86 -3.54 -269.15 -292.12c-132.99,-103.27 -209.57,-277.81 -301.92,-261.79 -5.74,54.94 55.15,122.43 82.06,156.97 40.99,52.64 55.25,52.03 113.73,131.9 74.39,101.59 177.5,200.6 231.35,270.97z"/>
   <path style="fill:#060606" d="M1153.96 3514.28l45.82 51.04c73.71,88.52 57.03,84.12 148.27,14.05 30.43,-23.37 62.27,-39.71 48.5,-98.74 -32.19,-22.03 -298.86,-49.17 -242.59,33.65z"/>
  </g>
 </g>
</svg>