<svg xmlns="http://www.w3.org/2000/svg"  width="100.915mm" height="52.929mm" version="1.1" style="shape-rendering:geometricPrecision; text-rendering:geometricPrecision; image-rendering:optimizeQuality; fill-rule:evenodd; clip-rule:evenodd"
viewBox="0 0 10091.5 5292.9"
 >
 <defs>
 </defs>
 <g id="Слой_x0020_1">
  <metadata id="CorelCorpID_0Corel-Layer"/>
  <g id="_2331382309488">
   <path style="fill:#63676E" d="M246.61 3824.37c-4.47,-31.6 12.98,-79.62 26.58,-107.26 13.37,-27.13 35.07,-53.77 53.05,-82.66 39.42,-63.34 62.19,-106.33 93.81,-177.12 28.84,-64.53 49.4,-131.02 75.44,-194.95 47.74,-117.24 32.12,-79.86 86.8,-179.95 -47.47,27.7 -116.99,102.87 -142.52,159.67 -43.63,97.11 -135.08,41.69 -68.47,-66.8 64.06,-104.32 186.12,-243.94 323.17,-254.76 110.71,-180.57 537.88,-261.33 848.21,-261.25 367.86,0.09 439.31,-0.03 666.53,167.42 37.32,27.49 36.07,38.64 66.9,69.3l49.12 53c13.25,21.35 4.81,7.21 11.41,22.45l20.46 13.6c125.38,76.3 206.14,150.11 300.56,261.75 60.79,71.88 74.64,189.89 -11.77,169.39 -58.98,-14 -61.54,-121.39 -126.92,-169.56 4.54,64.62 15.09,78.27 25.59,126.68 26.36,121.62 38.1,247.03 91.4,355.25l51.92 100.47c42.7,77.96 151.13,197.84 230.24,220.66 85.34,24.61 424.69,180.03 531.13,231.27 63.73,30.67 215.18,132.12 281.35,172.26l-13.34 19.8c72.51,-15.13 118.07,39.7 166.59,90.88 35.27,37.2 89.71,86.03 143.91,112.16 72.95,35.15 93.13,66.35 144.59,110.94 45.59,39.5 95.19,66.65 153.56,102.5 281.31,172.79 408.44,143.73 483.63,167.5 22.46,7.1 24.73,11.98 51.59,19.68 182.29,52.24 131.96,22.33 281.46,38.11 -53.12,-67.19 -154.86,-161.77 -228.23,-258.75 -57.7,-76.27 -71.76,-75.7 -112.21,-125.96 -26.53,-32.97 -86.61,-97.44 -80.94,-149.88 91.09,-15.32 166.65,151.39 297.84,249.98l265.53 278.95 -129.09 3.37c70.23,35.65 458.76,-29.95 567.14,-139.14 -35.51,-46.02 -93,-71.06 -132.03,-110.29l-115.41 -114.33c-74.43,-74.82 -209.41,-169.57 -211.48,-246.27 100.4,12.37 180.82,115.62 310.29,192.24 70.36,41.65 83.82,66.49 137.6,110.05 64.79,52.47 63.7,43.14 111.92,75.46 37.36,25.05 21.22,7.42 24.32,33.62 57.87,-22.55 65.84,-75.19 83.13,-142.23 21.88,-84.81 -8.84,-105.04 -18.6,-178.52 -13.83,-104.17 -40.25,-149.01 -85.46,-235.63 -37.2,-71.29 43.99,-94.58 89.06,-60.56l31.82 46.34c0.56,-1.31 2.16,4.12 3.47,6.04 12.17,-10.66 1.74,-3.98 20.39,-12.94 60.32,-28.99 228.94,-18.63 287.72,-12.1 115.9,12.87 176.75,-1.89 289.76,-17.81 85.11,-11.98 199.62,-14.25 299.81,-26.78 303.25,-37.96 536.75,-77.72 838.21,-144.66 132.86,-29.52 440.67,-91.73 571.93,-56.13 24.29,22.55 32.24,40.89 40.13,74.78l-32.76 37.67 25.52 2.77 20.47 -14.91c74.1,-47.12 304.33,65.31 366.14,97.94 73.09,38.59 121.86,38.11 193.37,72.5 59.84,28.77 120.63,53.3 190.54,66.17 234.65,43.16 472.21,241.46 569.09,195.75 47.35,-22.35 102.62,-87.75 127.88,-134.65 -30.83,2.72 -76.03,-35.89 -109.02,-51.18 -105.72,-48.98 -107.66,-70.52 -154.94,-101.57 -63.14,-41.48 -107.46,-44.04 -164.77,-92.01 -100.14,-83.83 -369.39,-153.05 -414.78,-263.96 332.07,38.97 297.92,93.54 495.77,168.84 48.19,18.33 63.2,43.1 102.44,68.49 59.73,38.65 274.44,138.72 293.42,191.05 33.34,-23.34 77.4,-189.6 90.02,-239.45 27.31,-107.82 12.3,-128.85 -4.88,-218.17 -1.58,-8.19 -5.17,-27.48 -6.85,-33.79l-10.29 -29.68c-16.24,21 -18.85,10.15 -88.5,-9.37 -168.5,-47.19 -192.14,-29.44 -293.54,-51.08 -59.35,-12.65 -128.25,-37.09 -190.4,-42.66 -80.7,-7.24 -134.81,1.12 -178.1,-49.18 72.49,-88.61 231.69,-73.52 342.75,-61.99 47.45,4.93 114.31,29.1 169.87,39.5 52.37,9.81 134.7,12.03 182.62,30.82 -50.47,-183.35 -200.33,-268.42 -322.3,-381.32 -46.47,-43 -74.06,-62.38 -139.17,-91.67 -105.66,-47.52 -214.09,-97.74 -324.8,-137.3 -82.47,-29.47 -94.3,-28.69 -186.95,-46.53 -65.24,-12.57 -110.55,-49.29 -107.93,-121.94 13.09,-21.26 43.8,-50.77 63.94,-65.28 46.65,-33.63 30.25,-24.98 63.78,-63.89 40.54,-47.04 75.9,-78.13 110.99,-135.43 41.89,-68.37 146.52,-253.25 167.46,-323.84 48.78,-164.36 169.9,-254.05 34.57,-581.24 -18.89,-45.67 -25.31,-183.43 -42.11,-204.9 6.26,83.1 -46.31,173.22 -74.66,237.8 -17.27,39.37 -27.29,75.56 -47.05,113.36 -17.25,33.03 -33.58,63.32 -52.29,100.53 -43.11,85.72 -176.8,367.99 -265.83,336.7 -17.95,-35.14 9.88,-85.04 26.46,-116.52 21.84,-41.48 31.06,-72.39 49.8,-110.58 53.66,-109.35 74.69,-188.13 93.62,-227.41 17.13,-35.53 39.99,-68.35 53.9,-107.06l79.27 -241.58c6.29,-24.01 7.78,-38.7 11.56,-65.39 4.01,-28.16 4.75,-38.38 25.06,-52.45l-183.98 -151.33c-67.82,-45.43 -199.29,-47.7 -259.07,-1.91 36.18,187.55 -40.38,717.82 -96.96,930.81 -12.23,46.04 -85.34,192.33 -128.9,211.64 -21.83,-47.34 13.05,-206.37 30.7,-256.25 38.56,-108.98 86.2,-560.51 81.65,-674.79 -1.86,-46.86 -14.66,-85.88 -6.87,-134.2 -62.32,32.52 -78.86,99.87 -123.77,158.6 -44.01,57.56 -74.31,89.06 -105.96,165.96 -37.63,91.43 -88.86,317.72 -122.63,417.07 -22.46,66.06 -56.05,128.91 -74.26,202.71 -21.4,86.73 -49.08,118.74 -77.3,194.84 -12.66,34.11 -17.93,69.72 -28.74,105.76 -10.15,33.85 -24.9,61.42 -37.76,97.75 -21.9,61.89 -51.62,174.8 -131.82,89.58l-15.09 19.51c-14.29,13.55 -0.07,7.37 -23.04,16.52 1.06,1.86 3.02,4.1 3.83,5.21 0.8,1.11 2.81,3.83 3.78,5.18l10.52 14.89c9.39,15.57 5.12,9.02 12.87,28.33 31.59,78.72 70,96.39 74.05,162.25 -55.91,1.45 -118.79,-37.82 -156.29,-64.94 -48.79,-35.28 -59.96,-70.8 -92.23,-129.16 -99.73,-180.37 -62.48,-112.87 -130.44,-309.13 -21.32,-61.6 -96.74,-169.74 -150.64,-288.5 -29.86,-65.78 -75.79,-128.25 -117.55,-213.67 -16.59,-33.93 -21.89,-33.66 -41.42,-59.74 -35.59,-47.52 -43.38,-94.26 -76.18,-144.05 -30.31,-45.99 -67.2,-70.27 -97,-124.45 -22.51,-40.94 -13.65,-33.03 -45.36,-64.51 -41.63,-41.31 -55.12,-94.77 -138.23,-192.82 -34.17,-40.31 -88.16,-64.25 -115.02,-106.89 -86.45,-137.17 -170.56,-146.02 -223.77,-218.23 -36.98,-50.17 -62.35,-63.45 -112.26,-100.98 -26.19,-19.7 -42.72,-25.92 -67.04,-43.92 -55.02,-40.68 -43.61,-66.87 -198.73,-133.69 -72.16,-31.07 -73.69,-57.39 -133.69,-89 -54.16,-28.54 -96.9,-30.96 -154.99,-67.27 -74.35,-46.45 -402.9,-191.72 -463.57,-205.3 -119.46,-26.75 -170.67,-77.94 -338.57,-96.02 -104.16,-11.23 -124.98,-41.28 -177.5,-49.06 -147.13,-21.79 -54.44,-3.02 -184.72,-38.98 -63.91,-17.65 -131.91,-13.09 -195.55,-27.83 -79.04,-18.28 -118.46,-20.69 -203.6,-21.23 -68.22,-0.43 -119.25,-24.71 -198.73,-22.34 -80.94,2.42 -139.56,-6.77 -216.08,-7.88 -142.16,-2.05 -493.97,21.65 -622.91,39.45 -75.68,10.44 -129.72,9.43 -205.67,16.94 -67.27,6.65 -122.53,26.75 -191.75,35.89 -144.01,19.02 -228.02,58.07 -352.52,91.05 -67.96,18 -101.14,35.1 -162.1,61.7 -59.3,25.86 -102.6,31.74 -160.65,53.45 -66.34,24.81 -219.05,106.72 -299.34,146.47 -27.86,13.8 -286.07,197.4 -319.71,234.45 -11.38,12.53 -14.82,20.16 -26.6,32.91 -89.81,97.21 -30.3,45.1 -138.36,133.92 -66.8,54.91 -234.58,264.65 -315.24,339.83 -125.85,117.27 -449.96,669.36 -490.93,832 -14.28,56.65 -38.94,95.56 -53.11,156.56 -14.08,60.61 -19.49,122.71 -33.84,187.17 -36.67,164.64 -102.59,354.01 -128.55,526.72 -10.59,70.41 -31.18,105.06 -51.51,167.74 -34.34,105.87 -84.81,258.37 -50.9,361.81 11.63,35.49 9.57,104.79 30.13,154.15 10.4,24.98 1.3,7 10.48,18.06z"/>
   <path style="fill:#989DA6" d="M694.47 2920.54c26.72,1.2 34.03,5.22 49.15,17.37 2.43,47.93 -41.21,54.64 -79.07,77.58 -35.13,21.3 -54,49.03 -82.26,66.94 -54.68,100.09 -39.06,62.71 -86.8,179.95 -26.04,63.93 -46.6,130.42 -75.44,194.95 -31.62,70.79 -54.39,113.78 -93.81,177.12 -17.98,28.89 -39.68,55.53 -53.05,82.66 -13.6,27.64 -31.05,75.66 -26.58,107.26 9.91,54.84 59.36,145.31 92.91,192.73 85.07,120.27 51.79,126.45 107.91,179.92 29.68,28.28 36.08,46.68 63.99,80.52l151.71 138.06c58.9,41.4 132.01,109.21 170.6,119.33l232.53 61.36c231.32,33.49 381.92,70.11 632.68,105.22 175.59,24.59 353.08,35.9 529.68,55.63 98.05,10.96 422.82,-1.53 565.27,17.32 65.8,8.7 75.69,-6.08 132.73,-6.31 49.05,-0.2 91.06,8.76 138.37,12.63 225.66,18.42 360.47,-14.02 571.34,-14.05 34.38,0 237.31,-7.55 276.72,-30.28 -65.93,-52.39 -69.35,-46.74 -121.02,-117.37 -16.67,-22.78 -93.97,-123.02 -74.77,-146.05l13.34 -19.8c-66.17,-40.14 -217.62,-141.59 -281.35,-172.26 -106.44,-51.24 -445.79,-206.66 -531.13,-231.27 -79.11,-22.82 -187.54,-142.7 -230.24,-220.66l-51.92 -100.47c-53.3,-108.22 -65.04,-233.63 -91.4,-355.25 -10.5,-48.41 -21.05,-62.06 -25.59,-126.68 -18.36,-37.32 -251.25,-205.15 -258.56,-218.99 -28.38,-53.63 30.94,-65.74 76.23,-56.19 -6.6,-15.24 1.84,-1.1 -11.41,-22.45l-49.12 -53c-30.83,-30.66 -29.58,-41.81 -66.9,-69.3 -227.22,-167.45 -298.67,-167.33 -666.53,-167.42 -310.33,-0.08 -737.5,80.68 -848.21,261.25z"/>
   <path style="fill:#060606" d="M8266.45 4191.32l32.76 -37.67c-60.87,30.02 -705.33,210.32 -780.39,218.99 -51.35,5.92 -97,17.65 -148.8,26.9l-443.38 49.2c-61.25,-4.74 -204.51,28.81 -289.26,35.08 -58.93,4.36 -95.56,11.09 -151.55,19.81 -54.23,8.45 -100.62,1.24 -154.87,9.5 -50.66,7.71 -95.85,20.18 -145.52,25.27 -48.87,5.02 -107.83,3.73 -151.63,10.86 -33.47,-61.68 -30.64,-146.88 -82.55,-199.97 -1.31,-1.92 -2.91,-7.35 -3.47,-6.04l-31.82 -46.34c-45.07,-34.02 -126.26,-10.73 -89.06,60.56 45.21,86.62 71.63,131.46 85.46,235.63 9.76,73.48 40.48,93.71 18.6,178.52 -17.29,67.04 -25.26,119.68 -83.13,142.23l-125.21 59.52c-108.38,109.19 -496.91,174.79 -567.14,139.14l-12.9 2.29c-149.5,-15.78 -99.17,14.13 -281.46,-38.11 -26.86,-7.7 -29.13,-12.58 -51.59,-19.68 -75.19,-23.77 -202.32,5.29 -483.63,-167.5 -58.37,-35.85 -107.97,-63 -153.56,-102.5 -51.46,-44.59 -71.64,-75.79 -144.59,-110.94 -54.2,-26.13 -108.64,-74.96 -143.91,-112.16 -48.52,-51.18 -94.08,-106.01 -166.59,-90.88 -19.2,23.03 58.1,123.27 74.77,146.05 51.67,70.63 55.09,64.98 121.02,117.37 -39.41,22.73 -242.34,30.28 -276.72,30.28 -210.87,0.03 -345.68,32.47 -571.34,14.05 -47.31,-3.87 -89.32,-12.83 -138.37,-12.63 -57.04,0.23 -66.93,15.01 -132.73,6.31 -142.45,-18.85 -467.22,-6.36 -565.27,-17.32 -176.6,-19.73 -354.09,-31.04 -529.68,-55.63 -250.76,-35.11 -401.36,-71.73 -632.68,-105.22l-232.53 -61.36c-38.59,-10.12 -111.7,-77.93 -170.6,-119.33l-151.71 -138.06c-27.91,-33.84 -34.31,-52.24 -63.99,-80.52 -56.12,-53.47 -22.84,-59.65 -107.91,-179.92 -33.55,-47.42 -83,-137.89 -92.91,-192.73 -9.18,-11.06 -0.08,6.92 -10.48,-18.06 -20.56,-49.36 -18.5,-118.66 -30.13,-154.15 -33.91,-103.44 16.56,-255.94 50.9,-361.81 20.33,-62.68 40.92,-97.33 51.51,-167.74 25.96,-172.71 91.88,-362.08 128.55,-526.72 14.35,-64.46 19.76,-126.56 33.84,-187.17 14.17,-61 38.83,-99.91 53.11,-156.56 40.97,-162.64 365.08,-714.73 490.93,-832 80.66,-75.18 248.44,-284.92 315.24,-339.83 108.06,-88.82 48.55,-36.71 138.36,-133.92 11.78,-12.75 15.22,-20.38 26.6,-32.91 33.64,-37.05 291.85,-220.65 319.71,-234.45 80.29,-39.75 233,-121.66 299.34,-146.47 58.05,-21.71 101.35,-27.59 160.65,-53.45 60.96,-26.6 94.14,-43.7 162.1,-61.7 124.5,-32.98 208.51,-72.03 352.52,-91.05 69.22,-9.14 124.48,-29.24 191.75,-35.89 75.95,-7.51 129.99,-6.5 205.67,-16.94 128.94,-17.8 480.75,-41.5 622.91,-39.45 76.52,1.11 135.14,10.3 216.08,7.88 79.48,-2.37 130.51,21.91 198.73,22.34 85.14,0.54 124.56,2.95 203.6,21.23 63.64,14.74 131.64,10.18 195.55,27.83 130.28,35.96 37.59,17.19 184.72,38.98 52.52,7.78 73.34,37.83 177.5,49.06 167.9,18.08 219.11,69.27 338.57,96.02 60.67,13.58 389.22,158.85 463.57,205.3 58.09,36.31 100.83,38.73 154.99,67.27 60,31.61 61.53,57.93 133.69,89 155.12,66.82 143.71,93.01 198.73,133.69 24.32,18 40.85,24.22 67.04,43.92 49.91,37.53 75.28,50.81 112.26,100.98 53.21,72.21 137.32,81.06 223.77,218.23 26.86,42.64 80.85,66.58 115.02,106.89 83.11,98.05 96.6,151.51 138.23,192.82 31.71,31.48 22.85,23.57 45.36,64.51 29.8,54.18 66.69,78.46 97,124.45 32.8,49.79 40.59,96.53 76.18,144.05 19.53,26.08 24.83,25.81 41.42,59.74 41.76,85.42 87.69,147.89 117.55,213.67 53.9,118.76 129.32,226.9 150.64,288.5 67.96,196.26 30.71,128.76 130.44,309.13 32.27,58.36 43.44,93.88 92.23,129.16 37.5,27.12 100.38,66.39 156.29,64.94 -4.05,-65.86 -42.46,-83.53 -74.05,-162.25 -7.75,-19.31 -3.48,-12.76 -12.87,-28.33l-10.52 -14.89c-0.97,-1.35 -2.98,-4.07 -3.78,-5.18 -0.81,-1.11 -2.77,-3.35 -3.83,-5.21l-132.82 -205.21c-119.47,-180.22 -145.89,-266.24 -227.75,-450.01 -41.71,-93.66 -87.81,-127.97 -130.88,-215.9 -20.86,-42.58 -26.49,-77.85 -56.04,-113.54 -28.64,-34.61 -49.12,-51.03 -77.13,-93.22 -21.63,-32.58 -39.21,-70.53 -65.08,-104.26 -118.81,-154.92 -162.16,-224.46 -303.22,-376.57l-366.02 -323.93c-40.03,-36.77 -42.69,-38.4 -103.1,-67.45 -76.62,-36.86 -129.54,-96.01 -205.85,-136.2 -40.92,-21.56 -74.08,-33.75 -113.82,-57.26 -46.7,-27.65 -61.59,-40.23 -116.37,-63.43 -44.81,-18.98 -63.33,-40.21 -110.73,-59.43 -45.48,-18.44 -83.5,-28.4 -125.15,-46.29 -162.69,-69.91 -70.95,-37.33 -254.36,-98.04 -74.82,-24.76 -192.22,-54.12 -259.74,-83.16 -116.48,-50.1 -439.56,-95.29 -572.54,-124.73 -296.18,-65.59 -300.87,-28.15 -453.75,-44.18 -195.56,-20.51 -302.55,-21.47 -510.2,-2.7 -106.75,9.67 -211.56,10.94 -324.07,21.52 -66.58,6.27 -400.34,42.35 -452.98,63.33 -63.45,25.27 -470.97,120.3 -542.02,153.68 -148.87,69.95 -570.05,264.7 -674.03,352.64 -35.43,29.96 -62.03,53.04 -100.32,78.75 -35.29,23.7 -65.85,44.66 -100.88,69.63l-174.83 165.73c-89.86,101.25 -156.69,10.27 -442.07,426.32 -50.64,73.83 -84.41,133.45 -137.05,202.4 -61.64,80.76 -228.94,646.16 -258.88,761.25 -47.47,182.51 -56.88,245.54 -84.48,418.94 -8.88,55.8 -24.52,81.09 -29.47,141.54 -4.85,59.32 -7.67,87.86 -30.83,137.8 -25.08,54.04 -28.76,68.23 -44.7,123.81 -12.22,42.59 -26.98,81.84 -45.07,125.1 -26.3,62.9 -13.37,89.36 -22.95,154.34 -12.13,82.27 -9.3,57.94 9.45,131.67 62.91,247.37 -23.22,84.24 147.6,360.53 61.14,98.91 74.2,159.2 120.85,217.79 52.26,65.63 99.43,145.37 158.19,190.52 82.54,63.43 348.25,203.08 471.02,220.81 35.48,5.13 48.17,-2.52 83.39,2.29 132.71,18.16 266.13,53.67 366.59,65.96 61.12,7.48 98.99,24.58 149.77,31.96 46.72,6.8 115.72,1.76 161.23,11.36 60.89,12.84 70.65,22.69 144.32,22.29 138.96,-0.75 337.74,21.86 478.2,41.75 67.43,9.55 107.45,0.54 171.09,3.67 56.56,2.79 109.64,10.49 164.21,12.72 129.85,5.33 401.4,-11.17 520.64,2.65 59.14,6.86 102.43,-7.33 162.87,-9.37l346.22 -2.06c161.65,5.36 62.46,18.54 146.45,21.53 58.4,2.07 107.3,-0.31 157.85,-14.25 63.22,-17.44 83.85,9.13 124.05,35.5 159.94,104.93 245.48,171.84 463.61,220.17 101.02,22.38 188.06,37.77 296.16,50.51 255.55,30.12 18.26,26.12 308.41,9.89 179.88,-10.06 209.89,33.77 448.04,-51.04 67.96,-24.2 70.05,-35.93 105.61,-74.81 54.06,-59.09 184.55,-67.75 214.03,-127.34 20.97,-42.41 53.34,-227.51 55.76,-289.58 181.66,-58.56 145.3,-12.62 289.31,-37.27 290.31,-49.72 604.6,-53.25 900.62,-109.07 128.88,-24.31 98.93,9.02 293.13,-41.12 105.68,-27.28 101.66,-10.48 275.17,-62.95 141.38,-42.75 119.62,-16.15 246.2,-87.31 60.85,-34.21 170.14,-83.96 201.79,-125.18z"/>
   <path style="fill:#060606" d="M7771.93 2801.8c80.2,85.22 109.92,-27.69 131.82,-89.58 12.86,-36.33 27.61,-63.9 37.76,-97.75 10.81,-36.04 16.08,-71.65 28.74,-105.76 28.22,-76.1 55.9,-108.11 77.3,-194.84 18.21,-73.8 51.8,-136.65 74.26,-202.71 33.77,-99.35 85,-325.64 122.63,-417.07 31.65,-76.9 61.95,-108.4 105.96,-165.96 44.91,-58.73 61.45,-126.08 123.77,-158.6 22.12,-26.99 80.04,-61.21 120.38,-77.21 59.78,-45.79 191.25,-43.52 259.07,1.91l183.98 151.33c26.24,34.02 91.54,106.18 100.16,132.6 16.8,21.47 23.22,159.23 42.11,204.9 135.33,327.19 14.21,416.88 -34.57,581.24 -20.94,70.59 -125.57,255.47 -167.46,323.84 -35.09,57.3 -70.45,88.39 -110.99,135.43 -33.53,38.91 -17.13,30.26 -63.78,63.89 -20.14,14.51 -50.85,44.02 -63.94,65.28 -2.62,72.65 42.69,109.37 107.93,121.94 92.65,17.84 104.48,17.06 186.95,46.53 110.71,39.56 219.14,89.78 324.8,137.3 65.11,29.29 92.7,48.67 139.17,91.67 121.97,112.9 271.83,197.97 322.3,381.32 30.46,23.14 56.08,97.27 55.3,143.96l10.29 29.68c1.68,6.31 5.27,25.6 6.85,33.79 17.18,89.32 32.19,110.35 4.88,218.17 -12.62,49.85 -56.68,216.11 -90.02,239.45 -3.38,28.47 -22.16,61.42 -48.12,80.34 -25.26,46.9 -80.53,112.3 -127.88,134.65 -96.88,45.71 -334.44,-152.59 -569.09,-195.75 -69.91,-12.87 -130.7,-37.4 -190.54,-66.17 -71.51,-34.39 -120.28,-33.91 -193.37,-72.5 -61.81,-32.63 -292.04,-145.06 -366.14,-97.94l-20.47 14.91c-16.32,84.38 126.99,103.72 190.79,130.1 39.53,16.34 73.13,35.49 112.96,50.7 42.03,16.06 78.08,26.36 118.42,43.42 152.85,64.68 324.55,114.27 479.34,173.2 42.47,16.16 70.6,34.01 110.36,51.95 40.65,18.34 74.27,23.68 118.19,45.08 166.58,81.18 228.86,85.01 336.7,-38.5 107.37,-122.99 96.13,-78.84 195.35,-288.35 41.34,-87.28 64.98,-141.35 71.02,-253.27 3.26,-60.62 -7.31,-249.81 -24.71,-298.97 -8.86,-25.05 -148.62,-283.18 -172.98,-309.13 -46.86,-49.93 -113,-101.23 -161.13,-162.48 -38,-48.34 -27.12,-39.9 -84.62,-76.84 -286.21,-183.82 -262.39,-126.52 -437.92,-212.41 -91.18,-44.62 -54.79,-46.73 -181,-68.19l-48.64 -10.54c-17.83,-7.37 -4.92,0.65 -17.28,-10.01 14.54,-15.73 23.58,-21.64 42.15,-41.13 15.28,-16.05 23.93,-30.06 38.4,-46.82 44.22,-51.24 195.46,-261.48 211.92,-305.5 84.52,-225.84 128.4,-176.28 172.49,-510.85 14.47,-109.83 -14.33,-182.54 -55.17,-278.06 -41.12,-96.16 -10.96,-184.74 -68.37,-277.65 -50.8,-82.2 -106.39,-124.78 -164.67,-184.12 -61.68,-62.81 -95.84,-115.62 -204.15,-145.26 -98.61,-26.97 -209.26,-33.86 -296.98,11.4 -91.12,47 -146.42,80.1 -212.95,137.23 -84.26,72.35 -217.28,296.66 -263.26,432.19 -17.5,51.62 -16.46,91.86 -26.78,140.78 -41.74,197.85 -137.02,361.24 -186.27,498.45 -15.7,43.74 -25.44,96.96 -37.23,140.7 -17.86,66.25 -86.14,204.2 -74.02,270.59z"/>
   <path style="fill:#989DA6" d="M5951.26 4349.29c51.91,53.09 49.08,138.29 82.55,199.97 43.8,-7.13 102.76,-5.84 151.63,-10.86 49.67,-5.09 94.86,-17.56 145.52,-25.27 54.25,-8.26 100.64,-1.05 154.87,-9.5 55.99,-8.72 92.62,-15.45 151.55,-19.81 84.75,-6.27 228.01,-39.82 289.26,-35.08l443.38 -49.2c51.8,-9.25 97.45,-20.98 148.8,-26.9 75.06,-8.67 719.52,-188.97 780.39,-218.99 -7.89,-33.89 -15.84,-52.23 -40.13,-74.78 -131.26,-35.6 -439.07,26.61 -571.93,56.13 -301.46,66.94 -534.96,106.7 -838.21,144.66 -100.19,12.53 -214.7,14.8 -299.81,26.78 -113.01,15.92 -173.86,30.68 -289.76,17.81 -58.78,-6.53 -227.4,-16.89 -287.72,12.1 -18.65,8.96 -8.22,2.28 -20.39,12.94z"/>
   <path style="fill:#060606" d="M756.35 3749.79c-29.15,78.79 79.59,162.41 158.01,172.27 -34.9,87.92 1.38,220.18 54.84,272.42 50.27,49.14 183.53,96.45 279.27,98.22 118.34,2.19 322.55,-102.04 371.41,-184.83 19.87,-33.68 50.41,-82.39 59.42,-125.5 121.25,23.98 413.76,-72.57 278.65,-135.94 -41.36,19.58 -4.51,22.31 -64.43,40.86 -30.19,9.35 -58.69,13.64 -90.95,15.2 -176.54,8.52 -331.08,-86.11 -468.24,-170.16 -119.21,-73.05 -133.46,42.26 -275.6,91.7 -300.92,104.69 -216.95,-79.31 -302.38,-74.24z"/>
   <path style="fill:#FFCCCC; stroke:#FFCCCC;stroke-width:20;stroke-miterlimit:22.9256" d="M967.08 3930.74c19.98,100.08 -25.58,67.14 80.85,195.78 114.92,138.88 346.41,64.01 421.58,-5.17 34.8,-32.02 121.6,-104.14 130.02,-152.51 -82.72,-28.29 -33.46,3.94 -182.54,-65.48 -47.76,-22.25 -97.8,-74.53 -151.16,-103.73 -40.92,14.54 -76.52,55.92 -130.65,81.94 -46.14,22.2 -145.04,35.84 -168.1,49.17z"/>
   <path style="fill:#989DA6" d="M8474.17 1369.53c-7.79,48.32 5.01,87.34 6.87,134.2 4.55,114.28 -43.09,565.81 -81.65,674.79 -17.65,49.88 -52.53,208.91 -30.7,256.25 43.56,-19.31 116.67,-165.6 128.9,-211.64 56.58,-212.99 133.14,-743.26 96.96,-930.81 -40.34,16 -98.26,50.22 -120.38,77.21z"/>
   <path style="fill:#989DA6" d="M9137.76 1578.16c-8.62,-26.42 -73.92,-98.58 -100.16,-132.6 -20.31,14.07 -21.05,24.29 -25.06,52.45 -3.78,26.69 -5.27,41.38 -11.56,65.39l-79.27 241.58c-13.91,38.71 -36.77,71.53 -53.9,107.06 -18.93,39.28 -39.96,118.06 -93.62,227.41 -18.74,38.19 -27.96,69.1 -49.8,110.58 -16.58,31.48 -44.41,81.38 -26.46,116.52 89.03,31.29 222.72,-250.98 265.83,-336.7 18.71,-37.21 35.04,-67.5 52.29,-100.53 19.76,-37.8 29.78,-73.99 47.05,-113.36 28.35,-64.58 80.92,-154.7 74.66,-237.8z"/>
   <path style="fill:#989DA6" d="M9759.46 4476.89c25.96,-18.92 44.74,-51.87 48.12,-80.34 -18.98,-52.33 -233.69,-152.4 -293.42,-191.05 -39.24,-25.39 -54.25,-50.16 -102.44,-68.49 -197.85,-75.3 -163.7,-129.87 -495.77,-168.84 45.39,110.91 314.64,180.13 414.78,263.96 57.31,47.97 101.63,50.53 164.77,92.01 47.28,31.05 49.22,52.59 154.94,101.57 32.99,15.29 78.19,53.9 109.02,51.18z"/>
   <path style="fill:#989DA6" d="M9875.58 3875.46c0.78,-46.69 -24.84,-120.82 -55.3,-143.96 -47.92,-18.79 -130.25,-21.01 -182.62,-30.82 -55.56,-10.4 -122.42,-34.57 -169.87,-39.5 -111.06,-11.53 -270.26,-26.62 -342.75,61.99 43.29,50.3 97.4,41.94 178.1,49.18 62.15,5.57 131.05,30.01 190.4,42.66 101.4,21.64 125.04,3.89 293.54,51.08 69.65,19.52 72.26,30.37 88.5,9.37z"/>
   <path style="fill:#989DA6" d="M5722.63 4973.37l125.21 -59.52c-3.1,-26.2 13.04,-8.57 -24.32,-33.62 -48.22,-32.32 -47.13,-22.99 -111.92,-75.46 -53.78,-43.56 -67.24,-68.4 -137.6,-110.05 -129.47,-76.62 -209.89,-179.87 -310.29,-192.24 2.07,76.7 137.05,171.45 211.48,246.27l115.41 114.33c39.03,39.23 96.52,64.27 132.03,110.29z"/>
   <path style="fill:#989DA6" d="M5142.59 5114.8l12.9 -2.29 129.09 -3.37 -265.53 -278.95c-131.19,-98.59 -206.75,-265.3 -297.84,-249.98 -5.67,52.44 54.41,116.91 80.94,149.88 40.45,50.26 54.51,49.69 112.21,125.96 73.37,96.98 175.11,191.56 228.23,258.75z"/>
   <path style="fill:#060606" d="M2518.97 3246.64c65.38,48.17 67.94,155.56 126.92,169.56 86.41,20.5 72.56,-97.51 11.77,-169.39 -94.42,-111.64 -175.18,-185.45 -300.56,-261.75l-20.46 -13.6c-45.29,-9.55 -104.61,2.56 -76.23,56.19 7.31,13.84 240.2,181.67 258.56,218.99z"/>
   <path style="fill:#060606" d="M582.29 3082.43c28.26,-17.91 47.13,-45.64 82.26,-66.94 37.86,-22.94 81.5,-29.65 79.07,-77.58 -15.12,-12.15 -22.43,-16.17 -49.15,-17.37 -137.05,10.82 -259.11,150.44 -323.17,254.76 -66.61,108.49 24.84,163.91 68.47,66.8 25.53,-56.8 95.05,-131.97 142.52,-159.67z"/>
   <path style="fill:#060606" d="M1309.09 3605.27c35.05,8.66 172.33,-91.38 136.66,-141.87 -42.4,-28.08 -135.33,-24.58 -200.34,-24.53 -146.89,0.7 62.7,166.15 63.68,166.4z"/>
  </g>
 </g>
</svg>