<svg xmlns="http://www.w3.org/2000/svg" xml:space="preserve" width="102.369mm" height="53.576mm" version="1.1" style="shape-rendering:geometricPrecision; text-rendering:geometricPrecision; image-rendering:optimizeQuality; fill-rule:evenodd; clip-rule:evenodd"
viewBox="0 0 10236.9 5357.6"
 xmlns:xlink="http://www.w3.org/1999/xlink">
 <defs>
  </defs>
 <g id="Слой_x0020_1">
  <image x="-0.5" y="7.48" width="10118.65" height="5318.21" xlink:href="nerpH_Images\nerpH_ImgID1.png"/>
  <g id="_2331382309488">
   <polygon style="fill:white" points="-0.5,5325.69 10118.14,5325.69 10118.14,7.48 -0.5,7.48 "/>
   <path style="fill:#63676E" d="M185.46 3860.85c-4.53,-33.11 13.17,-83.44 26.97,-112.4 13.56,-28.43 35.57,-56.35 53.81,-86.63 39.99,-66.38 63.08,-111.43 95.16,-185.61 29.25,-67.63 50.11,-137.31 76.52,-204.3 48.43,-122.87 32.59,-83.7 88.05,-188.59 -48.15,29.03 -118.67,107.81 -144.57,167.33 -44.26,101.77 -137.02,43.69 -69.45,-70 64.98,-109.33 188.79,-255.64 327.82,-266.98 112.3,-189.23 545.61,-273.87 860.41,-273.79 373.15,0.1 445.63,-0.03 676.12,175.46 37.85,28.81 36.59,40.49 67.86,72.62l49.83 55.54c13.44,22.38 4.88,7.56 11.57,23.53l20.75 14.25c127.19,79.96 209.11,157.31 304.89,274.31 61.66,75.33 75.71,199 -11.94,177.51 -59.83,-14.67 -62.43,-127.21 -128.75,-177.69 4.61,67.72 15.31,82.02 25.96,132.76 26.74,127.45 38.65,258.88 92.72,372.29l52.66 105.29c43.32,81.7 153.31,207.33 233.56,231.24 86.56,25.79 430.79,188.67 538.77,242.37 64.64,32.14 218.27,138.46 285.39,180.52l-13.53 20.75c73.55,-15.86 119.77,41.6 168.99,95.24 35.78,38.98 91,90.16 145.98,117.54 74,36.84 94.47,69.53 146.67,116.26 46.24,41.4 96.56,69.85 155.77,107.42 285.35,181.08 414.31,150.62 490.58,175.53 22.79,7.44 25.09,12.56 52.34,20.63 184.91,54.74 133.86,23.4 285.51,39.94 -53.89,-70.42 -157.09,-169.53 -231.52,-271.17 -58.53,-79.93 -72.79,-79.33 -113.82,-132 -26.91,-34.55 -87.86,-102.11 -82.11,-157.07 92.4,-16.05 169.05,158.65 302.13,261.97l269.35 292.33 -130.95 3.54c71.24,37.36 465.36,-31.39 575.3,-145.82 -36.02,-48.23 -94.34,-74.47 -133.93,-115.58l-117.07 -119.81c-75.5,-78.41 -212.42,-177.71 -214.52,-258.09 101.84,12.97 183.42,121.17 314.75,201.47 71.37,43.64 85.03,69.67 139.58,115.32 65.72,54.99 64.62,45.21 113.53,79.08 37.9,26.26 21.53,7.78 24.67,35.24 58.7,-23.64 66.79,-78.8 84.33,-149.06 22.19,-88.87 -8.97,-110.07 -18.87,-187.08 -14.03,-109.17 -40.83,-156.16 -86.69,-246.93 -37.74,-74.71 44.62,-99.12 90.34,-63.47l32.28 48.56c0.57,-1.37 2.19,4.32 3.52,6.33 12.34,-11.17 1.76,-4.17 20.68,-13.56 61.19,-30.38 232.24,-19.52 291.86,-12.68 117.57,13.49 179.29,-1.98 293.93,-18.66 86.33,-12.56 202.49,-14.93 304.12,-28.07 307.62,-39.78 544.47,-81.44 850.27,-151.6 134.77,-30.93 447.01,-96.13 580.16,-58.82 24.64,23.63 32.7,42.85 40.71,78.37l-33.24 39.48 25.89 2.9 20.77 -15.63c75.16,-49.38 308.7,68.45 371.4,102.64 74.14,40.44 123.62,39.94 196.16,75.98 60.7,30.15 122.36,55.86 193.28,69.34 238.02,45.24 479,253.05 577.27,205.14 48.03,-23.42 104.1,-91.95 129.72,-141.1 -31.27,2.85 -77.12,-37.62 -110.59,-53.64 -107.24,-51.33 -109.2,-73.9 -157.16,-106.44 -64.05,-43.47 -109.01,-46.15 -167.15,-96.43 -101.58,-87.85 -374.7,-160.39 -420.74,-276.62 336.85,40.84 302.2,98.03 502.9,176.94 48.88,19.21 64.11,45.17 103.91,71.78 60.59,40.5 278.39,145.37 297.64,200.21 33.82,-24.46 78.52,-198.69 91.32,-250.93 27.7,-113 12.48,-135.04 -4.95,-228.64 -1.6,-8.58 -5.24,-28.8 -6.95,-35.41l-10.44 -31.11c-16.47,22.01 -19.12,10.64 -89.77,-9.81 -170.92,-49.46 -194.9,-30.86 -297.76,-53.53 -60.21,-13.26 -130.1,-38.87 -193.14,-44.71 -81.86,-7.59 -136.75,1.17 -180.66,-51.54 73.53,-92.86 235.02,-77.05 347.68,-64.96 48.13,5.16 115.95,30.49 172.31,41.39 53.12,10.28 136.64,12.61 185.25,32.3 -51.2,-192.15 -203.21,-281.3 -326.94,-399.61 -47.14,-45.07 -75.12,-65.38 -141.17,-96.07 -107.18,-49.8 -217.17,-102.43 -329.47,-143.89 -83.66,-30.88 -95.66,-30.06 -189.64,-48.76 -66.18,-13.17 -112.14,-51.65 -109.49,-127.79 13.28,-22.28 44.43,-53.2 64.86,-68.41 47.33,-35.24 30.69,-26.18 64.7,-66.95 41.12,-49.3 76.99,-81.88 112.59,-141.93 42.49,-71.65 148.63,-265.4 169.87,-339.38 49.48,-172.24 172.34,-266.23 35.06,-609.12 -19.16,-47.86 -25.67,-192.23 -42.71,-214.73 6.35,87.09 -46.98,181.53 -75.73,249.21 -17.52,41.26 -27.69,79.18 -47.73,118.8 -17.5,34.61 -34.06,66.36 -53.04,105.35 -43.73,89.83 -179.35,385.64 -269.66,352.85 -18.21,-36.82 10.02,-89.12 26.84,-122.11 22.16,-43.47 31.51,-75.86 50.52,-115.88 54.43,-114.6 75.76,-197.16 94.97,-238.32 17.37,-37.24 40.56,-71.63 54.67,-112.2l80.41 -253.16c6.38,-25.17 7.89,-40.56 11.73,-68.53 4.07,-29.51 4.82,-40.22 25.42,-54.97l-186.63 -158.59c-68.79,-47.61 -202.16,-49.98 -262.8,-2 36.7,196.55 -40.96,752.26 -98.35,975.46 -12.41,48.25 -86.57,201.56 -130.75,221.79 -22.15,-49.61 13.23,-216.26 31.14,-268.54 39.11,-114.21 87.44,-587.4 82.82,-707.16 -1.89,-49.11 -14.87,-90 -6.97,-140.63 -63.21,34.07 -79.99,104.66 -125.55,166.2 -44.64,60.32 -75.38,93.34 -107.48,173.92 -38.17,95.82 -90.14,332.97 -124.4,437.08 -22.78,69.23 -56.85,135.09 -75.32,212.43 -21.71,90.9 -49.79,124.44 -78.42,204.19 -12.84,35.75 -18.18,73.07 -29.15,110.84 -10.3,35.47 -25.26,64.36 -38.3,102.43 -22.22,64.86 -52.37,183.19 -133.72,93.88l-15.31 20.45c-14.49,14.2 -0.07,7.72 -23.37,17.31 1.08,1.95 3.07,4.3 3.89,5.46 0.81,1.16 2.85,4.01 3.83,5.43l10.67 15.6c9.53,16.32 5.2,9.46 13.06,29.69 32.04,82.5 71,101.01 75.11,170.03 -56.71,1.52 -120.5,-39.63 -158.54,-68.05 -49.49,-36.97 -60.82,-74.2 -93.55,-135.36 -101.17,-189.02 -63.38,-118.28 -132.32,-323.96 -21.63,-64.55 -98.13,-177.88 -152.81,-302.34 -30.28,-68.93 -76.88,-134.4 -119.24,-223.91 -16.83,-35.56 -22.2,-35.28 -42.01,-62.61 -36.1,-49.8 -44.01,-98.78 -77.28,-150.96 -30.74,-48.2 -68.17,-73.64 -98.39,-130.42 -22.84,-42.9 -13.85,-34.62 -46.02,-67.6 -42.22,-43.3 -55.91,-99.32 -140.21,-202.07 -34.67,-42.25 -89.43,-67.34 -116.68,-112.02 -87.69,-143.75 -173.01,-153.03 -226.99,-228.7 -37.51,-52.58 -63.25,-66.49 -113.87,-105.82 -26.57,-20.65 -43.34,-27.17 -68.01,-46.03 -55.81,-42.63 -44.24,-70.08 -201.59,-140.1 -73.19,-32.57 -74.75,-60.15 -135.61,-93.27 -54.94,-29.91 -98.29,-32.45 -157.22,-70.5 -75.42,-48.68 -408.7,-200.92 -470.24,-215.15 -121.18,-28.03 -173.12,-81.68 -343.44,-100.63 -105.66,-11.76 -126.78,-43.26 -180.05,-51.41 -149.25,-22.83 -55.23,-3.16 -187.38,-40.85 -64.83,-18.49 -133.81,-13.72 -198.36,-29.16 -80.18,-19.16 -120.17,-21.69 -206.53,-22.25 -69.2,-0.45 -120.97,-25.9 -201.59,-23.41 -82.11,2.53 -141.57,-7.1 -219.19,-8.26 -144.2,-2.15 -501.08,22.69 -631.87,41.34 -76.77,10.94 -131.59,9.88 -208.63,17.75 -68.24,6.97 -124.29,28.04 -194.51,37.62 -146.08,19.93 -231.3,60.85 -357.59,95.41 -68.94,18.87 -102.59,36.79 -164.43,64.66 -60.15,27.1 -104.08,33.26 -162.96,56.02 -67.3,26 -222.2,111.84 -303.65,153.49 -28.26,14.46 -290.18,206.87 -324.31,245.7 -11.54,13.13 -15.03,21.13 -26.98,34.49 -91.1,101.87 -30.74,47.26 -140.35,140.34 -67.76,57.55 -237.95,277.35 -319.78,356.13 -127.66,122.9 -456.43,701.47 -497.99,871.92 -14.48,59.36 -39.5,100.14 -53.87,164.07 -14.28,63.51 -19.77,128.59 -34.33,196.14 -37.2,172.54 -104.06,371 -130.4,551.99 -10.74,73.79 -31.63,110.1 -52.25,175.79 -34.83,110.95 -86.03,270.76 -51.63,379.16 11.8,37.2 9.71,109.82 30.56,161.55 10.55,26.18 1.32,7.33 10.63,18.92z"/>
   <path style="fill:#989DA6" d="M639.77 2913.67c27.1,1.26 34.52,5.47 49.85,18.2 2.47,50.23 -41.8,57.26 -80.2,81.3 -35.64,22.32 -54.78,51.38 -83.45,70.15 -55.46,104.89 -39.62,65.72 -88.05,188.59 -26.41,66.99 -47.27,136.67 -76.52,204.3 -32.08,74.18 -55.17,119.23 -95.16,185.61 -18.24,30.28 -40.25,58.2 -53.81,86.63 -13.8,28.96 -31.5,79.29 -26.97,112.4 10.06,57.47 60.22,152.28 94.25,201.98 86.29,126.04 52.53,132.51 109.46,188.55 30.11,29.64 36.6,48.92 64.91,84.38l153.9 144.69c59.74,43.38 133.9,114.44 173.05,125.05l235.87 64.3c234.65,35.1 387.42,73.48 641.79,110.27 178.11,25.77 358.16,37.62 537.3,58.3 99.46,11.48 428.9,-1.6 573.4,18.15 66.74,9.12 76.78,-6.37 134.64,-6.61 49.75,-0.21 92.37,9.18 140.36,13.23 228.9,19.31 365.65,-14.69 579.56,-14.72 34.87,0 240.72,-7.91 280.7,-31.73 -66.88,-54.91 -70.35,-48.99 -122.76,-123 -16.91,-23.88 -95.32,-128.93 -75.85,-153.06l13.53 -20.75c-67.12,-42.06 -220.75,-148.38 -285.39,-180.52 -107.98,-53.7 -452.21,-216.58 -538.77,-242.37 -80.25,-23.91 -190.24,-149.54 -233.56,-231.24l-52.66 -105.29c-54.07,-113.41 -65.98,-244.84 -92.72,-372.29 -10.65,-50.74 -21.35,-65.04 -25.96,-132.76 -18.62,-39.11 -254.86,-214.99 -262.28,-229.49 -28.78,-56.21 31.39,-68.9 77.33,-58.89 -6.69,-15.97 1.87,-1.15 -11.57,-23.53l-49.83 -55.54c-31.27,-32.13 -30.01,-43.81 -67.86,-72.62 -230.49,-175.49 -302.97,-175.36 -676.12,-175.46 -314.8,-0.08 -748.11,84.56 -860.41,273.79z"/>
   <path style="fill:#060606" d="M8320.67 4245.41l33.24 -39.48c-61.75,31.46 -715.48,220.41 -791.62,229.49 -52.09,6.21 -98.4,18.5 -150.94,28.19l-449.76 51.56c-62.13,-4.96 -207.45,30.2 -293.42,36.77 -59.78,4.57 -96.94,11.62 -153.73,20.76 -55.01,8.85 -102.07,1.3 -157.1,9.95 -51.39,8.08 -97.23,21.15 -147.61,26.49 -49.58,5.26 -109.38,3.91 -153.81,11.38 -33.96,-64.64 -31.08,-153.93 -83.74,-209.57 -1.33,-2.01 -2.95,-7.7 -3.52,-6.33l-32.28 -48.56c-45.72,-35.65 -128.08,-11.24 -90.34,63.47 45.86,90.77 72.66,137.76 86.69,246.93 9.9,77.01 41.06,98.21 18.87,187.08 -17.54,70.26 -25.63,125.42 -84.33,149.06l-127.01 62.37c-109.94,114.43 -504.06,183.18 -575.3,145.82l-13.08 2.4c-151.65,-16.54 -100.6,14.8 -285.51,-39.94 -27.25,-8.07 -29.55,-13.19 -52.34,-20.63 -76.27,-24.91 -205.23,5.55 -490.58,-175.53 -59.21,-37.57 -109.53,-66.02 -155.77,-107.42 -52.2,-46.73 -72.67,-79.42 -146.67,-116.26 -54.98,-27.38 -110.2,-78.56 -145.98,-117.54 -49.22,-53.64 -95.44,-111.1 -168.99,-95.24 -19.47,24.13 58.94,129.18 75.85,153.06 52.41,74.01 55.88,68.09 122.76,123 -39.98,23.82 -245.83,31.73 -280.7,31.73 -213.91,0.03 -350.66,34.03 -579.56,14.72 -47.99,-4.05 -90.61,-13.44 -140.36,-13.23 -57.86,0.24 -67.9,15.73 -134.64,6.61 -144.5,-19.75 -473.94,-6.67 -573.4,-18.15 -179.14,-20.68 -359.19,-32.53 -537.3,-58.3 -254.37,-36.79 -407.14,-75.17 -641.79,-110.27l-235.87 -64.3c-39.15,-10.61 -113.31,-81.67 -173.05,-125.05l-153.9 -144.69c-28.31,-35.46 -34.8,-54.74 -64.91,-84.38 -56.93,-56.04 -23.17,-62.51 -109.46,-188.55 -34.03,-49.7 -84.19,-144.51 -94.25,-201.98 -9.31,-11.59 -0.08,7.26 -10.63,-18.92 -20.85,-51.73 -18.76,-124.35 -30.56,-161.55 -34.4,-108.4 16.8,-268.21 51.63,-379.16 20.62,-65.69 41.51,-102 52.25,-175.79 26.34,-180.99 93.2,-379.45 130.4,-551.99 14.56,-67.55 20.05,-132.63 34.33,-196.14 14.37,-63.93 39.39,-104.71 53.87,-164.07 41.56,-170.45 370.33,-749.02 497.99,-871.92 81.83,-78.78 252.02,-298.58 319.78,-356.13 109.61,-93.08 49.25,-38.47 140.35,-140.34 11.95,-13.36 15.44,-21.36 26.98,-34.49 34.13,-38.83 296.05,-231.24 324.31,-245.7 81.45,-41.65 236.35,-127.49 303.65,-153.49 58.88,-22.76 102.81,-28.92 162.96,-56.02 61.84,-27.87 95.49,-45.79 164.43,-64.66 126.29,-34.56 211.51,-75.48 357.59,-95.41 70.22,-9.58 126.27,-30.65 194.51,-37.62 77.04,-7.87 131.86,-6.81 208.63,-17.75 130.79,-18.65 487.67,-43.49 631.87,-41.34 77.62,1.16 137.08,10.79 219.19,8.26 80.62,-2.49 132.39,22.96 201.59,23.41 86.36,0.56 126.35,3.09 206.53,22.25 64.55,15.44 133.53,10.67 198.36,29.16 132.15,37.69 38.13,18.02 187.38,40.85 53.27,8.15 74.39,39.65 180.05,51.41 170.32,18.95 222.26,72.6 343.44,100.63 61.54,14.23 394.82,166.47 470.24,215.15 58.93,38.05 102.28,40.59 157.22,70.5 60.86,33.12 62.42,60.7 135.61,93.27 157.35,70.02 145.78,97.47 201.59,140.1 24.67,18.86 41.44,25.38 68.01,46.03 50.62,39.33 76.36,53.24 113.87,105.82 53.98,75.67 139.3,84.95 226.99,228.7 27.25,44.68 82.01,69.77 116.68,112.02 84.3,102.75 97.99,158.77 140.21,202.07 32.17,32.98 23.18,24.7 46.02,67.6 30.22,56.78 67.65,82.22 98.39,130.42 33.27,52.18 41.18,101.16 77.28,150.96 19.81,27.33 25.18,27.05 42.01,62.61 42.36,89.51 88.96,154.98 119.24,223.91 54.68,124.46 131.18,237.79 152.81,302.34 68.94,205.68 31.15,134.94 132.32,323.96 32.73,61.16 44.06,98.39 93.55,135.36 38.04,28.42 101.83,69.57 158.54,68.05 -4.11,-69.02 -43.07,-87.53 -75.11,-170.03 -7.86,-20.23 -3.53,-13.37 -13.06,-29.69l-10.67 -15.6c-0.98,-1.42 -3.02,-4.27 -3.83,-5.43 -0.82,-1.16 -2.81,-3.51 -3.89,-5.46l-134.73 -215.05c-121.19,-188.87 -147.99,-279.02 -231.02,-471.6 -42.32,-98.15 -89.08,-134.11 -132.77,-226.26 -21.16,-44.62 -26.87,-81.58 -56.84,-118.98 -29.06,-36.27 -49.83,-53.48 -78.24,-97.7 -21.94,-34.14 -39.78,-73.91 -66.02,-109.26 -120.52,-162.35 -164.49,-235.23 -307.58,-394.63l-371.29 -339.47c-40.6,-38.53 -43.3,-40.24 -104.58,-70.69 -77.72,-38.62 -131.4,-100.61 -208.81,-142.73 -41.51,-22.59 -75.15,-35.37 -115.46,-60.01 -47.37,-28.97 -62.48,-42.16 -118.04,-66.47 -45.46,-19.89 -64.24,-42.14 -112.33,-62.28 -46.13,-19.33 -84.7,-29.76 -126.95,-48.51 -165.03,-73.26 -71.97,-39.12 -258.02,-102.74 -75.89,-25.95 -194.98,-56.72 -263.47,-87.15 -118.16,-52.51 -445.89,-99.86 -580.78,-130.72 -300.44,-68.73 -305.2,-29.5 -460.28,-46.3 -198.37,-21.49 -306.9,-22.5 -517.54,-2.82 -108.28,10.13 -214.6,11.46 -328.73,22.55 -67.54,6.57 -406.1,44.38 -459.49,66.36 -64.37,26.49 -477.75,126.08 -549.82,161.06 -151.01,73.3 -578.25,277.4 -683.73,369.55 -35.94,31.4 -62.92,55.59 -101.76,82.53 -35.8,24.84 -66.8,46.8 -102.33,72.97l-177.35 173.68c-91.15,106.11 -158.94,10.76 -448.43,446.77 -51.37,77.37 -85.62,139.85 -139.02,212.11 -62.53,84.63 -232.23,677.16 -262.6,797.77 -48.16,191.26 -57.7,257.32 -85.7,439.04 -9.01,58.47 -24.87,84.97 -29.89,148.32 -4.92,62.17 -7.78,92.08 -31.28,144.42 -25.44,56.63 -29.17,71.5 -45.34,129.74 -12.39,44.64 -27.37,85.77 -45.72,131.1 -26.68,65.92 -13.56,93.65 -23.28,161.75 -12.3,86.22 -9.43,60.72 9.59,137.99 63.81,259.23 -23.55,88.28 149.72,377.82 62.02,103.65 75.27,166.84 122.59,228.24 53.01,68.78 100.86,152.34 160.47,199.66 83.72,66.47 353.26,212.82 477.79,231.4 35.99,5.37 48.87,-2.64 84.59,2.4 134.62,19.03 269.96,56.24 371.87,69.12 62,7.84 100.41,25.76 151.92,33.5 47.39,7.12 117.38,1.84 163.55,11.9 61.77,13.46 71.67,23.78 146.4,23.36 140.96,-0.79 342.59,22.91 485.08,43.75 68.4,10.01 108.99,0.57 173.55,3.85 57.37,2.92 111.21,10.99 166.57,13.33 131.72,5.58 407.17,-11.71 528.13,2.78 59.99,7.19 103.9,-7.69 165.21,-9.82l351.2 -2.16c163.98,5.62 63.36,19.43 148.56,22.56 59.24,2.17 108.84,-0.32 160.12,-14.93 64.13,-18.28 85.06,9.57 125.83,37.2 162.25,109.96 249.02,180.08 470.28,230.73 102.48,23.46 190.77,39.58 300.42,52.93 259.23,31.57 18.53,27.38 312.85,10.37 182.47,-10.54 212.91,35.39 454.49,-53.49 68.93,-25.36 71.05,-37.65 107.13,-78.4 54.83,-61.92 187.2,-71 217.1,-133.45 21.28,-44.44 54.11,-238.42 56.57,-303.47 184.27,-61.37 147.39,-13.22 293.47,-39.06 294.48,-52.1 613.3,-55.8 913.57,-114.3 130.74,-25.47 100.36,9.45 297.35,-43.09 107.2,-28.59 103.12,-10.98 279.13,-65.97 143.41,-44.8 121.34,-16.92 249.74,-91.5 61.73,-35.85 172.59,-87.99 204.69,-131.18z"/>
   <path style="fill:#060606" d="M7819.04 2789.23c81.35,89.31 111.5,-29.02 133.72,-93.88 13.04,-38.07 28,-66.96 38.3,-102.43 10.97,-37.77 16.31,-75.09 29.15,-110.84 28.63,-79.75 56.71,-113.29 78.42,-204.19 18.47,-77.34 52.54,-143.2 75.32,-212.43 34.26,-104.11 86.23,-341.26 124.4,-437.08 32.1,-80.58 62.84,-113.6 107.48,-173.92 45.56,-61.54 62.34,-132.13 125.55,-166.2 22.44,-28.29 81.19,-64.15 122.11,-80.92 60.64,-47.98 194.01,-45.61 262.8,2l186.63 158.59c26.62,35.65 92.86,111.28 101.6,138.96 17.04,22.5 23.55,166.87 42.71,214.73 137.28,342.89 14.42,436.88 -35.06,609.12 -21.24,73.98 -127.38,267.73 -169.87,339.38 -35.6,60.05 -71.47,92.63 -112.59,141.93 -34.01,40.77 -17.37,31.71 -64.7,66.95 -20.43,15.21 -51.58,46.13 -64.86,68.41 -2.65,76.14 43.31,114.62 109.49,127.79 93.98,18.7 105.98,17.88 189.64,48.76 112.3,41.46 222.29,94.09 329.47,143.89 66.05,30.69 94.03,51 141.17,96.07 123.73,118.31 275.74,207.46 326.94,399.61 30.9,24.25 56.88,101.94 56.09,150.86l10.44 31.11c1.71,6.61 5.35,26.83 6.95,35.41 17.43,93.6 32.65,115.64 4.95,228.64 -12.8,52.24 -57.5,226.47 -91.32,250.93 -3.42,29.84 -22.47,64.37 -48.81,84.2 -25.62,49.15 -81.69,117.68 -129.72,141.1 -98.27,47.91 -339.25,-159.9 -577.27,-205.14 -70.92,-13.48 -132.58,-39.19 -193.28,-69.34 -72.54,-36.04 -122.02,-35.54 -196.16,-75.98 -62.7,-34.19 -296.24,-152.02 -371.4,-102.64l-20.77 15.63c-16.55,88.43 128.82,108.7 193.54,136.34 40.1,17.12 74.18,37.19 114.58,53.13 42.64,16.83 79.2,27.63 120.12,45.51 155.05,67.78 329.22,119.75 486.24,181.5 43.08,16.94 71.62,35.65 111.95,54.45 41.23,19.22 75.34,24.81 119.89,47.24 168.97,85.07 232.15,89.09 341.54,-40.35 108.92,-128.89 97.51,-82.62 198.16,-302.18 41.94,-91.47 65.92,-148.13 72.04,-265.42 3.31,-63.53 -7.41,-261.79 -25.06,-313.31 -8.99,-26.25 -150.76,-296.77 -175.47,-323.96 -47.53,-52.33 -114.63,-106.09 -163.45,-170.27 -38.54,-50.66 -27.51,-41.82 -85.84,-80.53 -290.32,-192.64 -266.16,-132.59 -444.21,-222.6 -92.5,-46.76 -55.58,-48.97 -183.61,-71.46l-49.34 -11.05c-18.09,-7.72 -4.99,0.68 -17.53,-10.49 14.75,-16.48 23.92,-22.68 42.76,-43.1 15.5,-16.82 24.27,-31.5 38.95,-49.07 44.86,-53.69 198.27,-274.02 214.97,-320.15 85.74,-236.67 130.25,-184.74 174.97,-535.36 14.68,-115.09 -14.53,-191.29 -55.96,-291.39 -41.71,-100.78 -11.12,-193.61 -69.36,-290.97 -51.53,-86.15 -107.92,-130.77 -167.03,-192.96 -62.57,-65.82 -97.22,-121.16 -207.09,-152.22 -100.03,-28.27 -212.27,-35.49 -301.25,11.94 -92.43,49.26 -148.53,83.95 -216.02,143.82 -85.47,75.82 -220.4,310.89 -267.04,452.92 -17.76,54.09 -16.7,96.26 -27.17,147.53 -42.34,207.34 -138.99,378.57 -188.95,522.36 -15.92,45.84 -25.8,101.61 -37.76,147.45 -18.12,69.43 -87.38,214 -75.09,283.57z"/>
   <path style="fill:#989DA6" d="M5972.18 4410.95c52.66,55.64 49.78,144.93 83.74,209.57 44.43,-7.47 104.23,-6.12 153.81,-11.38 50.38,-5.34 96.22,-18.41 147.61,-26.49 55.03,-8.65 102.09,-1.1 157.1,-9.95 56.79,-9.14 93.95,-16.19 153.73,-20.76 85.97,-6.57 231.29,-41.73 293.42,-36.77l449.76 -51.56c52.54,-9.69 98.85,-21.98 150.94,-28.19 76.14,-9.08 729.87,-198.03 791.62,-229.49 -8.01,-35.52 -16.07,-54.74 -40.71,-78.37 -133.15,-37.31 -445.39,27.89 -580.16,58.82 -305.8,70.16 -542.65,111.82 -850.27,151.6 -101.63,13.14 -217.79,15.51 -304.12,28.07 -114.64,16.68 -176.36,32.15 -293.93,18.66 -59.62,-6.84 -230.67,-17.7 -291.86,12.68 -18.92,9.39 -8.34,2.39 -20.68,13.56z"/>
   <path style="fill:#060606" d="M702.54 3782.7c-29.57,82.57 80.73,170.2 160.28,180.53 -35.4,92.14 1.4,230.74 55.63,285.49 50.99,51.5 186.17,101.07 283.29,102.93 120.04,2.3 327.19,-106.94 376.75,-193.7 20.15,-35.29 51.13,-86.34 60.27,-131.52 123,25.13 419.72,-76.05 282.66,-142.46 -41.95,20.52 -4.57,23.38 -65.35,42.82 -30.63,9.8 -59.54,14.3 -92.26,15.93 -179.08,8.93 -335.85,-90.24 -474.98,-178.32 -120.92,-76.56 -135.38,44.29 -279.56,96.1 -305.25,109.71 -220.07,-83.12 -306.73,-77.8z"/>
   <path style="fill:#FFCCCC; stroke:#FFCCCC;stroke-width:20;stroke-miterlimit:22.9256" d="M916.3 3972.33c20.27,104.88 -25.95,70.36 82.01,205.17 116.57,145.54 351.39,67.08 427.65,-5.42 35.3,-33.56 123.35,-109.14 131.89,-159.83 -83.91,-29.64 -33.95,4.13 -185.17,-68.62 -48.45,-23.31 -99.21,-78.1 -153.33,-108.7 -41.51,15.23 -77.63,58.6 -132.53,85.87 -46.81,23.26 -147.13,37.56 -170.52,51.53z"/>
   <path style="fill:#989DA6" d="M8531.38 1288.26c-7.9,50.63 5.08,91.52 6.97,140.63 4.62,119.76 -43.71,592.95 -82.82,707.16 -17.91,52.28 -53.29,218.93 -31.14,268.54 44.18,-20.23 118.34,-173.54 130.75,-221.79 57.39,-223.2 135.05,-778.91 98.35,-975.46 -40.92,16.77 -99.67,52.63 -122.11,80.92z"/>
   <path style="fill:#989DA6" d="M9204.52 1506.89c-8.74,-27.68 -74.98,-103.31 -101.6,-138.96 -20.6,14.75 -21.35,25.46 -25.42,54.97 -3.84,27.97 -5.35,43.36 -11.73,68.53l-80.41 253.16c-14.11,40.57 -37.3,74.96 -54.67,112.2 -19.21,41.16 -40.54,123.72 -94.97,238.32 -19.01,40.02 -28.36,72.41 -50.52,115.88 -16.82,32.99 -45.05,85.29 -26.84,122.11 90.31,32.79 225.93,-263.02 269.66,-352.85 18.98,-38.99 35.54,-70.74 53.04,-105.35 20.04,-39.62 30.21,-77.54 47.73,-118.8 28.75,-67.68 82.08,-162.12 75.73,-249.21z"/>
   <path style="fill:#989DA6" d="M9835.16 4544.68c26.34,-19.83 45.39,-54.36 48.81,-84.2 -19.25,-54.84 -237.05,-159.71 -297.64,-200.21 -39.8,-26.61 -55.03,-52.57 -103.91,-71.78 -200.7,-78.91 -166.05,-136.1 -502.9,-176.94 46.04,116.23 319.16,188.77 420.74,276.62 58.14,50.28 103.1,52.96 167.15,96.43 47.96,32.54 49.92,55.11 157.16,106.44 33.47,16.02 79.32,56.49 110.59,53.64z"/>
   <path style="fill:#989DA6" d="M9952.95 3914.39c0.79,-48.92 -25.19,-126.61 -56.09,-150.86 -48.61,-19.69 -132.13,-22.02 -185.25,-32.3 -56.36,-10.9 -124.18,-36.23 -172.31,-41.39 -112.66,-12.09 -274.15,-27.9 -347.68,64.96 43.91,52.71 98.8,43.95 180.66,51.54 63.04,5.84 132.93,31.45 193.14,44.71 102.86,22.67 126.84,4.07 297.76,53.53 70.65,20.45 73.3,31.82 89.77,9.81z"/>
   <path style="fill:#989DA6" d="M5740.26 5064.97l127.01 -62.37c-3.14,-27.46 13.23,-8.98 -24.67,-35.24 -48.91,-33.87 -47.81,-24.09 -113.53,-79.08 -54.55,-45.65 -68.21,-71.68 -139.58,-115.32 -131.33,-80.3 -212.91,-188.5 -314.75,-201.47 2.1,80.38 139.02,179.68 214.52,258.09l117.07 119.81c39.59,41.11 97.91,67.35 133.93,115.58z"/>
   <path style="fill:#989DA6" d="M5151.88 5213.19l13.08 -2.4 130.95 -3.54 -269.35 -292.33c-133.08,-103.32 -209.73,-278.02 -302.13,-261.97 -5.75,54.96 55.2,122.52 82.11,157.07 41.03,52.67 55.29,52.07 113.82,132 74.43,101.64 177.63,200.75 231.52,271.17z"/>
   <path style="fill:#060606" d="M2490.51 3255.41c66.32,50.48 68.92,163.02 128.75,177.69 87.65,21.49 73.6,-102.18 11.94,-177.51 -95.78,-117 -177.7,-194.35 -304.89,-274.31l-20.75 -14.25c-45.94,-10.01 -106.11,2.68 -77.33,58.89 7.42,14.5 243.66,190.38 262.28,229.49z"/>
   <path style="fill:#060606" d="M525.97 3083.32c28.67,-18.77 47.81,-47.83 83.45,-70.15 38.4,-24.04 82.67,-31.07 80.2,-81.3 -15.33,-12.73 -22.75,-16.94 -49.85,-18.2 -139.03,11.34 -262.84,157.65 -327.82,266.98 -67.57,113.69 25.19,171.77 69.45,70 25.9,-59.52 96.42,-138.3 144.57,-167.33z"/>
   <path style="fill:#060606" d="M1263.23 3631.24c35.55,9.08 174.81,-95.76 138.62,-148.67 -43.01,-29.43 -137.27,-25.76 -203.22,-25.71 -149,0.73 63.6,174.12 64.6,174.38z"/>
  </g>
 </g>
</svg>